<svg width="72" height="44" viewBox="0 0 72 44" version="1.1" xmlns="http://www.w3.org/2000/svg" xmlns:xlink="http://www.w3.org/1999/xlink">
<g id="Canvas" fill="none">
<g id="Group">
<g id="Vector" opacity="0.68">
<path d="M 36 22.2673C 36 22.2673 32.5388 -6.21759 0 1.24707C 0 1.24707 7.54286 30.9236 36 22.2673Z" transform="translate(0 19.9055)" fill="#B9BABD"/>
</g>
<g id="Vector_2" opacity="0.68">
<path d="M 21.8487 36.4626C 21.8487 36.4626 32.918 10.0467 1.04866 0C 1.04866 0 -7.06563 29.5276 21.8487 36.4626Z" transform="translate(14.184 5.71021)" fill="#A8D9CF"/>
</g>
<g id="Vector_3" opacity="0.68">
<path d="M 9.61573 42.1066C 9.61573 42.1066 32.228 24.8436 9.58308 0C 9.58308 0 -12.0006 21.4505 9.61573 42.1066Z" transform="translate(26.368 0)" fill="#41735F"/>
</g>
<g id="Vector_4" opacity="0.68">
<path d="M 1.53853 36.446C 1.53853 36.446 29.6365 33.0199 22.3549 -1.26277e-07C 22.3549 -1.26277e-07 -6.93494 7.58051 1.53853 36.446Z" transform="translate(34.4941 5.67712)" fill="#73422D"/>
</g>
<g id="Vector_5" opacity="0.68">
<path d="M 9.96492e-07 22.2194C 9.96492e-07 22.2194 26.0735 33.375 35.902 1.05023C 35.902 1.03368 6.77551 -7.10957 9.96492e-07 22.2194Z" transform="translate(36.098 19.9203)" fill="#FF7BAC"/>
</g>
</g>
</g>
</svg>

