<svg width="95" height="26" viewBox="0 0 95 26" version="1.1" xmlns="http://www.w3.org/2000/svg" xmlns:xlink="http://www.w3.org/1999/xlink">
<title>Group</title>
<desc>Created using Figma</desc>
<g id="Canvas" transform="translate(2399 -90)">
<g id="Group">
<g id="Group">
<g id="Vector">
<use xlink:href="#path0_fill" transform="translate(-2361.17 98.1058)" fill="#999999"/>
</g>
<g id="Vector">
<use xlink:href="#path1_fill" transform="translate(-2399 97.3399)" fill="#999999"/>
</g>
<g id="Vector">
<use xlink:href="#path2_fill" transform="translate(-2342.99 97.4379)" fill="#999999"/>
</g>
<g id="Vector">
<use xlink:href="#path3_fill" transform="translate(-2392.21 91.0907)" fill="#999999"/>
</g>
<g id="Vector">
<use xlink:href="#path4_fill" transform="translate(-2371.38 91.1405)" fill="#999999"/>
</g>
<g id="R">
<use xlink:href="#path5_fill" transform="translate(-2308.89 91)" fill="#999999"/>
</g>
<g id="Vector">
<use xlink:href="#path6_stroke" transform="translate(-2309.63 91.29)" fill="#999999"/>
</g>
</g>
</g>
</g>
<defs>
<path id="path0_fill" d="M 3.36993 17.8942C 2.98761 17.7448 2.60529 17.6451 2.22297 17.4957C 0.837043 16.848 0.120184 15.7022 0.0246028 14.1578C -0.070978 13.1614 0.120184 12.1651 0.454717 11.2185C 1.69727 7.63158 2.89203 4.04465 4.13458 0.507527C 4.23016 0.208615 4.37353 0.0591595 4.70807 0.0591595C 6.61968 0.0591595 8.48351 0.0591595 10.3951 0.0591595C 10.5385 0.0591595 10.6341 0.0591595 10.8252 0.0591595C 10.7775 0.258434 10.7297 0.407889 10.6819 0.557345C 9.63048 3.54646 8.57909 6.58539 7.57549 9.57451C 7.43212 10.0229 7.38433 10.5211 7.43212 10.9694C 7.5277 11.8163 8.14898 12.3145 8.96141 12.2149C 10.4907 12.0156 11.5899 11.2185 12.1634 9.67414C 13.2626 6.63521 14.3139 3.54646 15.4131 0.457708C 15.5087 0.108978 15.6521 -0.0404774 16.0344 0.00934117C 17.946 0.00934117 19.9054 0.00934117 21.817 0.00934117C 21.9604 0.00934117 22.1038 0.00934117 22.2949 0.00934117C 21.9126 1.10535 21.5781 2.10172 21.2436 3.09809C 19.7143 7.63158 18.185 12.1153 16.6557 16.6487C 16.5123 17.0473 16.3211 17.1967 15.9388 17.1469C 14.2184 17.0971 12.4979 17.1469 10.7774 17.1469C 10.5863 17.1469 10.4429 17.1469 10.204 17.1469C 10.2995 16.5989 10.4429 16.1506 10.5385 15.5527C 10.3473 15.6524 10.2518 15.7022 10.1562 15.752C 8.77025 16.6986 7.28875 17.4458 5.66387 17.7448C 5.61608 17.7448 5.56829 17.7946 5.5205 17.8444C 4.80365 17.8942 4.08679 17.8942 3.36993 17.8942Z"/>
<path id="path1_fill" d="M 0 17.863C 0.0955808 17.7135 0.143371 17.6139 0.191162 17.4645C 1.19476 14.5252 2.19836 11.536 3.15417 8.59675C 3.20196 8.44729 3.29754 8.24802 3.29754 8.09856C 3.44091 7.4011 3.20196 7.10219 2.53289 7.15201C 2.05499 7.15201 1.62487 7.20183 1.14697 7.20183C 0.477904 7.20183 0.191162 6.70364 0.477904 6.056C 0.573485 5.90655 0.669066 5.70727 0.812437 5.60763C 2.43731 3.9138 4.06219 2.21997 5.63927 0.476321C 5.68706 0.426503 5.78264 0.326866 5.83043 0.277047C 6.45171 -0.270957 7.31193 0.0279542 7.40752 0.87487C 7.69426 3.3658 7.981 5.85673 8.26774 8.34765C 8.26774 8.44729 8.26774 8.54693 8.26774 8.64657C 8.31553 8.9953 8.21995 9.39385 7.88542 9.49348C 7.59868 9.5433 7.21635 9.49348 6.92961 9.34403C 6.54729 9.14475 6.26055 8.79602 5.92601 8.49711C 5.30474 7.99893 5.11358 8.04874 4.82683 8.84584C 3.96661 11.3866 3.10638 13.9273 2.29394 16.4681C 2.19836 16.8168 2.05499 17.1655 1.91162 17.5641C 1.81604 17.9128 1.67266 18.0623 1.29034 17.9128C 1.33813 17.7135 1.38592 17.5641 1.43371 17.3648C 2.43731 14.3757 3.44091 11.3866 4.44451 8.39747C 4.4923 8.1982 4.58788 7.99892 4.73125 7.84947C 5.06578 7.35128 5.4959 7.25165 5.9738 7.6502C 6.35613 7.99892 6.73845 8.34766 7.16856 8.64657C 7.31193 8.7462 7.5031 8.7462 7.64647 8.79602C 7.69426 8.64657 7.78984 8.44729 7.78984 8.29784C 7.55089 5.95636 7.26414 3.61489 6.9774 1.32324C 6.92961 1.07414 6.78624 0.725414 6.64287 0.675595C 6.4995 0.625777 6.16496 0.825051 5.9738 0.974507C 4.44451 2.5687 2.96301 4.1629 1.43371 5.75709C 1.38592 5.80691 1.29034 5.90655 1.24255 5.95636C 1.19476 6.10582 1.14697 6.25528 1.05139 6.40473C 1.19476 6.45455 1.33813 6.55419 1.52929 6.55419C 2.0072 6.55419 2.53289 6.55419 3.0108 6.55419C 3.67986 6.55419 4.06219 6.95273 3.96661 7.6502C 3.91881 7.94911 3.87102 8.1982 3.77544 8.49711C 2.81963 11.4364 1.81604 14.3757 0.860228 17.3648C 0.669066 17.8132 0.477904 18.0623 0 17.9626C 0 17.9626 0 17.9128 0 17.863Z"/>
<path id="path2_fill" d="M 18.2559 17.8646C 15.8664 17.8646 13.4769 17.8646 11.0396 17.8646C 11.0874 17.6654 11.1352 17.4661 11.2307 17.2668C 12.2821 14.1283 13.3335 11.0395 14.3849 7.90093C 14.4805 7.5522 14.6239 7.15365 14.5761 6.80492C 14.4805 5.85837 13.6203 5.31037 12.6167 5.55946C 11.5653 5.85837 10.8484 6.55583 10.4661 7.60202C 9.31914 10.89 8.21996 14.1283 7.12078 17.4163C 7.0252 17.765 6.88182 17.8646 6.54729 17.8646C 4.54009 17.8646 2.4851 17.8646 0.477903 17.8646C 0.334532 17.8646 0.19116 17.8646 -1.45845e-06 17.8646C 0.286741 16.9679 0.573485 16.1708 0.860228 15.3239C 2.43731 10.641 4.0144 5.90819 5.54369 1.22524C 5.63927 0.876514 5.78264 0.727059 6.16497 0.727059C 8.02879 0.727059 9.89262 0.727059 11.7564 0.727059C 11.8998 0.727059 12.0432 0.727059 12.2344 0.727059C 12.1388 1.22524 12.0432 1.72343 11.9476 2.27143C 12.5689 1.87289 13.0946 1.52416 13.6681 1.22524C 14.7672 0.577603 15.962 0.179055 17.2523 0.0295989C 19.5463 -0.169675 20.9322 0.627422 22.1748 2.7198C 22.5093 2.52053 22.796 2.27143 23.1306 2.07216C 24.8988 0.976151 26.7626 0.129236 28.9132 0.179055C 31.2071 0.228873 33.0232 1.57397 33.5489 3.71617C 33.74 4.51327 33.74 5.36019 33.4533 6.15728C 32.163 9.94349 30.9204 13.7297 29.6301 17.5159C 29.5823 17.6654 29.3911 17.8646 29.2477 17.8646C 27.0494 17.8646 24.851 17.8646 22.7005 17.8646C 22.6527 17.8646 22.6527 17.8646 22.5571 17.8148C 22.7482 17.2668 22.8916 16.7188 23.0828 16.121C 23.943 13.5304 24.8032 10.89 25.6635 8.29948C 25.759 8.05039 25.8068 7.75148 25.8546 7.50238C 25.998 6.40638 25.2333 5.60928 24.182 5.80855C 22.9872 6.00783 22.1748 6.65547 21.7924 7.85111C 20.6933 11.0395 19.5941 14.2279 18.5427 17.4163C 18.3515 17.5159 18.3037 17.6654 18.2559 17.8646Z"/>
<path id="path3_fill" d="M 15.1496 0.0498186C 14.2415 2.6902 13.4291 5.23095 12.5211 7.97097C 12.8078 7.82152 12.999 7.72188 13.1902 7.62224C 14.6717 6.77533 16.2487 6.12768 17.9692 6.12768C 20.741 6.07787 22.6527 7.82152 23.1306 10.6114C 23.3695 12.1557 23.2261 13.6503 22.7482 15.095C 21.7924 17.9845 20.3587 20.5253 18.0648 22.4682C 15.7708 24.4111 13.1902 25.2082 10.2749 24.5606C 9.9882 24.5107 9.74925 24.4111 9.4625 24.3115C 8.55449 23.9627 7.74205 23.4147 7.31194 22.3187C 7.07298 22.9165 6.88182 23.4147 6.69066 23.9129C 6.64287 24.0624 6.45171 24.2118 6.30834 24.2118C 4.20556 24.2118 2.15057 24.2118 -9.1153e-08 24.2118C 0.0477903 23.9627 0.095581 23.7635 0.191162 23.614C 2.77185 15.9419 5.35253 8.22006 7.93321 0.548004C 8.02879 0.0996372 8.21995 0 8.65007 0C 10.6095 0 12.6167 0 14.5761 0C 14.7195 0 14.9106 0.0498186 15.1496 0.0498186ZM 16.1532 13.8994C 16.1532 11.8568 14.5283 10.711 12.76 11.6077C 10.8006 12.6539 9.60588 14.3477 9.31913 16.6394C 9.12797 18.3332 10.4183 19.4791 12.0432 19.1303C 14.2893 18.682 16.1532 16.2409 16.1532 13.8994Z"/>
<path id="path4_fill" d="M 15.2451 7.42355e-10C 14.815 1.29528 14.3849 2.49093 14.0026 3.73639C 11.7564 10.3623 9.46251 17.038 7.21635 23.6638C 7.07298 24.0624 6.88182 24.2118 6.4995 24.2118C 4.4923 24.162 2.53289 24.2118 0.525695 24.2118C 0.382324 24.2118 0.238952 24.2118 -3.64612e-07 24.2118C 0.334533 23.2653 0.621276 22.3685 0.908018 21.4718C 3.24975 14.4972 5.63927 7.5226 7.981 0.597823C 8.12437 0.199274 8.31553 0.0498186 8.69786 0.0996371C 10.8962 7.42354e-09 12.999 7.42355e-10 15.2451 7.42355e-10Z"/>
<path id="path5_fill" d="M 2.41378 4.97764L 1.23951 4.97764L 1.23951 7L 0.576836 7L 0.576836 2.00076L 2.2318 2.00076C 2.79491 2.00076 3.22753 2.12894 3.52968 2.38532C 3.83412 2.64169 3.98635 3.0148 3.98635 3.50465C 3.98635 3.81596 3.90165 4.08721 3.73226 4.3184C 3.56516 4.54959 3.33168 4.72242 3.03182 4.83687L 4.20609 6.9588L 4.20609 7L 3.49878 7L 2.41378 4.97764ZM 1.23951 4.43858L 2.25241 4.43858C 2.57974 4.43858 2.83954 4.35388 3.03182 4.18449C 3.22639 4.01511 3.32367 3.78849 3.32367 3.50465C 3.32367 3.19563 3.23097 2.95872 3.04555 2.79391C 2.86243 2.6291 2.5969 2.54555 2.24897 2.54326L 1.23951 2.54326L 1.23951 4.43858Z"/>
<path id="path6_stroke" d="M 3.23208 1.89311C 3.23208 2.73356 2.58259 3.38621 1.81604 3.38621L 1.81604 4.18621C 3.05543 4.18621 4.03208 3.14372 4.03208 1.89311L 3.23208 1.89311ZM 1.81604 3.38621C 1.04949 3.38621 0.4 2.73356 0.4 1.89311L -0.4 1.89311C -0.4 3.14372 0.576649 4.18621 1.81604 4.18621L 1.81604 3.38621ZM 0.4 1.89311C 0.4 1.05266 1.04949 0.4 1.81604 0.4L 1.81604 -0.4C 0.576649 -0.4 -0.4 0.642489 -0.4 1.89311L 0.4 1.89311ZM 1.81604 0.4C 2.58259 0.4 3.23208 1.05266 3.23208 1.89311L 4.03208 1.89311C 4.03208 0.642489 3.05543 -0.4 1.81604 -0.4L 1.81604 0.4Z"/>
</defs>
</svg>
