<svg width="165" height="37" viewBox="0 0 165 37" version="1.1" xmlns="http://www.w3.org/2000/svg" xmlns:xlink="http://www.w3.org/1999/xlink">
<title>Group</title>
<desc>Created using Figma</desc>
<g id="Canvas" transform="translate(1841 -85)">
<g id="Group">
<g id="Group">
<g id="type 1">
<g id="Vector">
<use xlink:href="#path0_fill" transform="translate(-1793.68 94.1233)" fill="#999999"/>
</g>
<g id="Vector">
<use xlink:href="#path1_fill" transform="translate(-1779.51 94.1233)" fill="#999999"/>
</g>
<g id="Vector">
<use xlink:href="#path2_fill" transform="translate(-1774.17 98.7863)" fill="#999999"/>
</g>
<g id="Vector">
<use xlink:href="#path3_fill" transform="translate(-1758.6 98.7863)" fill="#999999"/>
</g>
<g id="Vector">
<use xlink:href="#path4_fill" transform="translate(-1743.76 94.1233)" fill="#999999"/>
</g>
<g id="Vector">
<use xlink:href="#path5_fill" transform="translate(-1734.94 98.9384)" fill="#999999"/>
</g>
<g id="Vector">
<use xlink:href="#path6_fill" transform="translate(-1726.23 98.837)" fill="#999999"/>
</g>
<g id="Vector">
<use xlink:href="#path7_fill" transform="translate(-1709.42 94.1233)" fill="#999999"/>
</g>
<g id="Vector">
<use xlink:href="#path8_fill" transform="translate(-1703.76 99.2425)" fill="#999999"/>
</g>
<g id="Vector">
<use xlink:href="#path9_fill" transform="translate(-1689.8 99.2425)" fill="#999999"/>
</g>
</g>
<g id="shape 1">
<use xlink:href="#path10_fill" transform="translate(-1841 85)" fill="#999999"/>
</g>
</g>
</g>
</g>
<defs>
<path id="path0_fill" d="M 3.21698 12.6205L 3.21698 10.289L 11.1038 10.289L 11.1038 7.29863L 3.21698 7.29863L 3.21698 2.99041L 11.6226 2.99041L 11.6226 0L -1.58346e-06 0L -1.58346e-06 6.3863L -1.58346e-06 12.4685C -1.58346e-06 15.611 1.34906 17.7904 4.61792 18.1959C 4.66981 18.1959 4.7217 18.2466 4.82547 18.2466L 4.87736 18.2466C 5.18868 18.2973 5.55189 18.2973 5.91509 18.2973L 11.8302 18.2973L 11.8302 15.3575L 5.86321 15.3575C 4.87736 15.3575 3.21698 14.9014 3.21698 12.6205Z"/>
<path id="path1_fill" d="M 0 8.66712L 0 18.3479L 3.21698 18.3479L 3.21698 8.61644L 3.21698 0L 0 0L 0 8.66712Z"/>
<path id="path2_fill" d="M 7.10849 3.86695e-07C 3.00943 3.86695e-07 1.58346e-06 2.73699 1.58346e-06 6.99452L 1.58346e-06 7.09589C 1.58346e-06 11.2521 2.95755 13.9384 7.21226 13.9384C 9.28773 13.9384 11.2075 13.3808 12.9198 11.5562L 11 9.73151C 9.96227 10.7452 8.97641 11.2521 7.31603 11.2521C 4.92924 11.2521 3.32075 9.88356 3.21698 7.75479L 13.8019 7.75479C 13.8538 7.24795 13.8538 6.63973 13.8538 6.63973C 13.8538 2.99041 11.1557 3.86695e-07 7.10849 3.86695e-07ZM 3.26887 5.62603C 3.42453 4.00411 5.08491 2.73699 7.10849 2.73699C 8.97641 2.73699 10.533 4.05479 10.533 5.62603L 3.26887 5.62603Z"/>
<path id="path3_fill" d="M 7.36792 2.83836C 8.82075 2.83836 9.91038 3.34521 10.8443 4.30822L 12.8679 2.28082C 11.3113 0.658905 9.4434 3.86695e-07 7.41981 3.86695e-07C 3.32076 3.86695e-07 1.58346e-06 2.99041 1.58346e-06 7.0452C 1.58346e-06 11.1 3.21698 14.0397 7.36792 14.0397C 9.39151 14.0397 11.2594 13.3808 12.816 11.7589L 10.7925 9.73151C 9.85849 10.6438 8.76886 11.2014 7.31603 11.2014C 4.92924 11.2014 3.11321 9.4274 3.11321 7.0452C 3.1651 4.61233 4.98113 2.83836 7.36792 2.83836Z"/>
<path id="path4_fill" d="M 3.21698 12.6205L 3.21698 7.95753L 6.17453 7.95753L 6.17453 5.06849L 3.21698 5.06849L 3.21698 -1.80069e-15L -3.16692e-06 -1.80069e-15L -3.16692e-06 6.58904L -3.16692e-06 12.8233C 0.10377 15.8137 1.45283 17.8411 4.56604 18.2466C 4.61792 18.2466 4.66981 18.2973 4.77359 18.2973L 4.82547 18.2973C 5.13679 18.3479 5.5 18.3479 5.86321 18.3479L 6.22641 18.3479L 6.22641 15.4082L 5.9151 15.4082C 4.82547 15.3575 3.21698 14.9014 3.21698 12.6205Z"/>
<path id="path5_fill" d="M 3.21698 2.23014L 3.21698 0.253425L -3.16692e-06 0.253425L -3.16692e-06 6.7411L -3.16692e-06 13.4822L 3.21698 13.4822L 3.21698 6.53836C 3.21698 4.3589 4.61793 2.99041 6.84906 2.99041C 7.36793 2.99041 7.8349 3.0411 8.19811 3.14247L 8.19811 0.10137C 8.04245 0.10137 7.57547 1.80069e-15 7.21227 1.80069e-15C 5.34434 3.60138e-15 3.89151 0.861644 3.21698 2.23014Z"/>
<path id="path6_fill" d="M 7.41981 -3.86695e-07C 3.32075 -3.86695e-07 -1.58346e-06 3.0411 -1.58346e-06 6.99452C -1.58346e-06 10.9479 3.26887 13.989 7.41981 13.989C 11.5189 13.989 14.8396 10.9479 14.8396 6.99452C 14.7877 3.0411 11.5189 -3.86695e-07 7.41981 -3.86695e-07ZM 7.41981 11.1507C 5.03302 11.1507 3.21698 9.32603 3.21698 6.99452C 3.21698 4.66301 5.03302 2.83836 7.41981 2.83836C 9.8066 2.83836 11.6226 4.66301 11.6226 6.99452C 11.6226 9.32603 9.75472 11.1507 7.41981 11.1507Z"/>
<path id="path7_fill" d="M 3.16692e-06 8.36301L 3.16692e-06 18.3479L 3.21697 18.3479L 3.21697 8.46438L 3.21697 0L 3.16692e-06 0L 3.16692e-06 8.36301Z"/>
<path id="path8_fill" d="M 9.18397 7.65342C 9.18397 9.73151 7.93868 10.6438 6.22641 10.6438C 4.51415 10.6438 3.26886 9.73151 3.26886 7.65342L 3.26886 1.93348e-07L 0 1.93348e-07L 0 3.85206L 0 8.00822C 0 11.8096 2.80188 13.5836 6.17452 13.5836C 9.54717 13.5836 12.4009 11.7589 12.4009 7.90685L 12.4009 3.85206L 12.4009 1.93348e-07L 9.13208 1.93348e-07L 9.18397 7.65342Z"/>
<path id="path9_fill" d="M 10.6887 8.97123L 8.6651 6.18356L 11.2075 2.83836L 13.3349 1.93348e-07L 9.8066 1.93348e-07L 6.90095 3.95343L 3.9434 1.93348e-07L 0.415101 1.93348e-07L 2.43868 2.63562L 5.13679 6.23425L 2.3349 10.0356L -3.16692e-06 13.2288L 3.42453 13.2288L 6.90095 8.56575L 10.3255 13.2288L 13.8019 13.2288L 10.6887 8.97123Z"/>
<path id="path10_fill" d="M 0 37L 37.8774 37L 37.8774 0L 0 0L 0 37ZM 24.283 2.83836C 30.9764 4.96712 35.8019 11.1507 35.8538 18.5C 35.8538 25.6973 31.1321 31.8808 24.283 34.1616L 24.283 2.83836ZM 18.9387 1.97671C 20.1321 1.97671 21.4292 2.12877 22.5189 2.33151C 22.5189 10.6945 14.217 17.6384 5.65566 17.6384L 2.07547 17.6384C 2.64623 9.02192 9.91038 1.97671 18.9387 1.97671ZM 5.65566 19.3616C 14.217 19.3616 22.5189 26.2548 22.5189 34.6178C 21.4292 34.8205 20.0802 34.9726 18.9387 34.9726C 9.91038 34.9726 2.38679 27.8767 2.07547 19.311L 5.65566 19.3616Z"/>
</defs>
</svg>
