<svg width="235" height="31" viewBox="0 0 235 31" version="1.1" xmlns="http://www.w3.org/2000/svg" xmlns:xlink="http://www.w3.org/1999/xlink">
<title>Logo Vector</title>
<desc>Created using Figma</desc>
<g id="Canvas" transform="translate(-1814 461)">
<g id="Logo Vector">
<g id="letras">
<g id="Vector">
<use xlink:href="#path0_fill" transform="translate(1877.98 -455.142)" fill="#FFFFFF"/>
<use xlink:href="#path1_stroke" transform="translate(1877.98 -455.142)" fill="#FFFFFF"/>
</g>
<g id="Vector">
<use xlink:href="#path2_fill" transform="translate(1916.93 -455.142)" fill="#FFFFFF"/>
<use xlink:href="#path3_stroke" transform="translate(1916.93 -455.142)" fill="#FFFFFF"/>
</g>
<g id="Vector">
<use xlink:href="#path4_fill" transform="translate(1960.69 -455.142)" fill="#FFFFFF"/>
<use xlink:href="#path5_stroke" transform="translate(1960.69 -455.142)" fill="#FFFFFF"/>
</g>
<g id="Vector">
<use xlink:href="#path6_fill" transform="translate(2031.16 -455.142)" fill="#FFFFFF"/>
<use xlink:href="#path7_stroke" transform="translate(2031.16 -455.142)" fill="#FFFFFF"/>
</g>
<g id="Vector">
<use xlink:href="#path8_fill" transform="translate(1931.74 -455.142)" fill="#FFFFFF"/>
<use xlink:href="#path9_stroke" transform="translate(1931.74 -455.142)" fill="#FFFFFF"/>
</g>
<g id="Vector">
<use xlink:href="#path10_fill" transform="translate(1896.64 -455.142)" fill="#FFFFFF"/>
<use xlink:href="#path11_stroke" transform="translate(1896.64 -455.142)" fill="#FFFFFF"/>
</g>
<g id="Vector">
<use xlink:href="#path12_fill" transform="translate(1980.64 -455.21)" fill="#FFFFFF"/>
<use xlink:href="#path13_stroke" transform="translate(1980.64 -455.21)" fill="#FFFFFF"/>
</g>
<g id="Vector">
<use xlink:href="#path14_fill" transform="translate(1999.31 -455.142)" fill="#FFFFFF"/>
<use xlink:href="#path15_stroke" transform="translate(1999.31 -455.142)" fill="#FFFFFF"/>
</g>
<g id="Vector">
<use xlink:href="#path16_fill" transform="translate(2015.61 -455.142)" fill="#FFFFFF"/>
<use xlink:href="#path17_stroke" transform="translate(2015.61 -455.142)" fill="#FFFFFF"/>
</g>
<g id="Vector">
<use xlink:href="#path18_fill" transform="translate(1904.35 -441.724)" fill="#FFFFFF"/>
<use xlink:href="#path19_stroke" transform="translate(1904.35 -441.724)" fill="#FFFFFF"/>
</g>
<g id="Vector">
<use xlink:href="#path20_fill" transform="matrix(0.112805 -0.993591 0.993408 0.114401 1939.27 -439.748)" fill="#FFFFFF"/>
<use xlink:href="#path21_stroke" transform="matrix(0.112805 -0.993591 0.993408 0.114401 1939.27 -439.748)" fill="#FFFFFF"/>
</g>
<g id="Vector">
<use xlink:href="#path22_fill" transform="matrix(0.112805 -0.993591 0.993408 0.114401 1967.81 -439.749)" fill="#FFFFFF"/>
<use xlink:href="#path23_stroke" transform="matrix(0.112805 -0.993591 0.993408 0.114401 1967.81 -439.749)" fill="#FFFFFF"/>
</g>
<g id="Vector">
<use xlink:href="#path20_fill" transform="matrix(0.112805 -0.993591 0.993408 0.114401 2038.34 -439.756)" fill="#FFFFFF"/>
<use xlink:href="#path21_stroke" transform="matrix(0.112805 -0.993591 0.993408 0.114401 2038.34 -439.756)" fill="#FFFFFF"/>
</g>
</g>
<g id="Logo">
<g id="Vector" opacity="0.68">
<use xlink:href="#path24_fill" transform="translate(1814 -446.978)" fill="#B9BABD"/>
</g>
<g id="Vector" opacity="0.68">
<use xlink:href="#path25_fill" transform="translate(1823.72 -456.981)" fill="#A8D9CF"/>
</g>
<g id="Vector" opacity="0.68">
<use xlink:href="#path26_fill" transform="translate(1832.04 -461)" fill="#41735F"/>
</g>
<g id="Vector" opacity="0.68">
<use xlink:href="#path27_fill" transform="translate(1837.6 -456.981)" fill="#73422D"/>
</g>
<g id="Vector" opacity="0.68">
<use xlink:href="#path28_fill" transform="translate(1838.72 -446.964)" fill="#FF7BAC"/>
</g>
</g>
</g>
</g>
<defs>
<path id="path0_fill" d="M 15.0815 4.35924C 14.3376 3.74623 13.526 3.20132 12.5792 2.65641C 11.6324 2.17962 10.6179 1.90717 9.46821 1.90717C 8.38613 1.90717 7.4393 2.11151 6.49248 2.52019C 5.54566 2.92887 4.7341 3.47377 4.0578 4.1549C 3.3815 4.83604 2.84046 5.65339 2.43468 6.60698C 2.0289 7.56056 1.82601 8.58226 1.82601 9.60396C 1.82601 10.6938 2.0289 11.6474 2.43468 12.6009C 2.84046 13.5545 3.3815 14.3719 4.0578 15.053C 4.7341 15.7341 5.54566 16.2791 6.49248 16.6877C 7.4393 17.0964 8.45376 17.3008 9.46821 17.3008C 10.6179 17.3008 11.6324 17.0964 12.5792 16.6196C 13.526 16.2109 14.4052 15.5979 15.0815 14.8487C 15.1491 14.7125 15.2844 14.6443 15.4873 14.5762C 15.6225 14.5081 15.8254 14.5081 15.9607 14.5081C 16.2312 14.5081 16.4341 14.5762 16.5694 14.7806C 16.7046 14.9849 16.7723 15.1892 16.7723 15.3936C 16.7723 15.7341 16.7046 15.9385 16.5017 16.1428C 15.6225 17.0964 14.6081 17.8457 13.3908 18.3906C 12.1734 18.9355 10.8884 19.2079 9.53584 19.2079C 8.25086 19.2079 6.96589 18.9355 5.81618 18.4587C 4.66647 17.9819 3.65202 17.3008 2.77283 16.4153C 1.89364 15.5298 1.21734 14.5081 0.743929 13.3502C 0.270518 12.1923 -1.03195e-06 10.9662 -1.03195e-06 9.60396C -1.03195e-06 8.2417 0.270518 7.01566 0.743929 5.85774C 1.21734 4.69981 1.89364 3.67811 2.77283 2.79264C 3.65202 1.90717 4.66647 1.22604 5.81618 0.749245C 6.96589 0.272453 8.18324 2.59831e-07 9.53584 2.59831e-07C 10.8884 2.59831e-07 12.1058 0.272453 13.3231 0.817358C 14.4728 1.36226 15.4873 2.0434 16.3665 2.92887C 16.4341 2.99698 16.5694 3.13321 16.637 3.33755C 16.7046 3.47377 16.7723 3.67811 16.7723 3.81434C 16.7723 4.08679 16.7046 4.29113 16.5017 4.42736C 16.2988 4.56358 16.096 4.6317 15.8931 4.6317C 15.4873 4.69981 15.2168 4.56358 15.0815 4.35924Z"/>
<path id="path1_stroke" d="M 15.0815 4.35924L 15.2483 4.24885L 15.2318 4.22391L 15.2087 4.2049L 15.0815 4.35924ZM 12.5792 2.65641L 12.6791 2.4828L 12.6691 2.47779L 12.5792 2.65641ZM 12.5792 16.6196L 12.4998 16.4357L 12.4892 16.441L 12.5792 16.6196ZM 15.0815 14.8487L 15.23 14.9827L 15.2484 14.9623L 15.2606 14.9376L 15.0815 14.8487ZM 15.4873 14.5762L 15.5509 14.7658L 15.5645 14.7613L 15.5772 14.7549L 15.4873 14.5762ZM 16.5017 16.1428L 16.3597 16.0018L 16.3547 16.0073L 16.5017 16.1428ZM 5.81618 0.749245L 5.73957 0.564501L 5.81618 0.749245ZM 13.3231 0.817358L 13.4088 0.636587L 13.4048 0.634812L 13.3231 0.817358ZM 16.3665 2.92887L 16.2246 3.06978L 16.3665 2.92887ZM 16.637 3.33755L 16.4471 3.40039L 16.4516 3.41381L 16.4579 3.42648L 16.637 3.33755ZM 15.8931 4.6317L 15.8931 4.4317L 15.8764 4.4317L 15.86 4.43446L 15.8931 4.6317ZM 15.2087 4.2049C 14.4543 3.58324 13.633 3.03216 12.679 2.48307L 12.4794 2.82976C 13.419 3.37048 14.2209 3.90922 14.9543 4.51359L 15.2087 4.2049ZM 12.6691 2.47779C 11.6968 1.98814 10.6517 1.70717 9.46821 1.70717L 9.46821 2.10717C 10.5841 2.10717 11.5679 2.37111 12.4892 2.83504L 12.6691 2.47779ZM 9.46821 1.70717C 8.35841 1.70717 7.38465 1.91727 6.41323 2.33656L 6.57174 2.70381C 7.49396 2.30575 8.41385 2.10717 9.46821 2.10717L 9.46821 1.70717ZM 6.41323 2.33656C 5.44474 2.75459 4.61145 3.31344 3.91588 4.01399L 4.19973 4.29582C 4.85675 3.6341 5.64658 3.10314 6.57174 2.70381L 6.41323 2.33656ZM 3.91588 4.01399C 3.22032 4.71452 2.66557 5.55361 2.25065 6.52867L 2.61871 6.68529C 3.01535 5.75318 3.54269 4.95756 4.19973 4.29582L 3.91588 4.01399ZM 2.25065 6.52867C 1.83413 7.50749 1.62601 8.55587 1.62601 9.60396L 2.02601 9.60396C 2.02601 8.60866 2.22367 7.61364 2.61871 6.68529L 2.25065 6.52867ZM 1.62601 9.60396C 1.62601 10.7211 1.83449 11.7013 2.25065 12.6793L 2.61871 12.5226C 2.22331 11.5934 2.02601 10.6665 2.02601 9.60396L 1.62601 9.60396ZM 2.25065 12.6793C 2.66557 13.6543 3.22032 14.4934 3.91588 15.1939L 4.19973 14.9121C 3.54269 14.2504 3.01535 13.4547 2.61871 12.5226L 2.25065 12.6793ZM 3.91588 15.1939C 4.61145 15.8945 5.44474 16.4533 6.41323 16.8714L 6.57174 16.5041C 5.64658 16.1048 4.85675 15.5738 4.19973 14.9121L 3.91588 15.1939ZM 6.41323 16.8714C 7.38549 17.291 8.42696 17.5008 9.46821 17.5008L 9.46821 17.1008C 8.48055 17.1008 7.49311 16.9018 6.57174 16.5041L 6.41323 16.8714ZM 9.46821 17.5008C 10.6429 17.5008 11.6893 17.2917 12.6691 16.7982L 12.4892 16.441C 11.5754 16.9012 10.5929 17.1008 9.46821 17.1008L 9.46821 17.5008ZM 12.6584 16.8032C 13.6296 16.3841 14.533 15.7548 15.23 14.9827L 14.933 14.7147C 14.2774 15.441 13.4224 16.0378 12.4999 16.436L 12.6584 16.8032ZM 15.2606 14.9376C 15.2885 14.8814 15.3482 14.8339 15.5509 14.7658L 15.4236 14.3866C 15.2206 14.4548 15.0097 14.5435 14.9024 14.7597L 15.2606 14.9376ZM 15.5772 14.7549C 15.6127 14.737 15.6688 14.7232 15.744 14.7156C 15.8171 14.7083 15.8919 14.7081 15.9607 14.7081L 15.9607 14.3081C 15.8942 14.3081 15.8 14.308 15.7039 14.3176C 15.6101 14.3271 15.4972 14.3473 15.3973 14.3976L 15.5772 14.7549ZM 15.9607 14.7081C 16.1956 14.7081 16.3189 14.7645 16.4026 14.891L 16.7361 14.6702C 16.5493 14.3879 16.2668 14.3081 15.9607 14.3081L 15.9607 14.7081ZM 16.4026 14.891C 16.5206 15.0692 16.5723 15.2358 16.5723 15.3936L 16.9723 15.3936C 16.9723 15.1427 16.8887 14.9006 16.7361 14.6702L 16.4026 14.891ZM 16.5723 15.3936C 16.5723 15.5518 16.5563 15.6629 16.5246 15.7524C 16.4938 15.8392 16.4442 15.9169 16.3598 16.0019L 16.6437 16.2837C 16.7621 16.1644 16.8478 16.0378 16.9016 15.8861C 16.9544 15.7373 16.9723 15.5759 16.9723 15.3936L 16.5723 15.3936ZM 16.3547 16.0073C 15.493 16.9419 14.5005 17.6747 13.309 18.208L 13.4725 18.5731C 14.7157 18.0166 15.7521 17.2509 16.6488 16.2784L 16.3547 16.0073ZM 13.309 18.208C 12.1178 18.7412 10.8607 19.0079 9.53584 19.0079L 9.53584 19.4079C 10.9162 19.4079 12.229 19.1297 13.4725 18.5731L 13.309 18.208ZM 9.53584 19.0079C 8.27845 19.0079 7.01945 18.7412 5.8928 18.2739L 5.73957 18.6434C 6.91234 19.1298 8.22328 19.4079 9.53584 19.4079L 9.53584 19.0079ZM 5.8928 18.2739C 4.76761 17.8073 3.77534 17.1411 2.91475 16.2744L 2.63091 16.5562C 3.5287 17.4604 4.56534 18.1565 5.73957 18.6434L 5.8928 18.2739ZM 2.91475 16.2744C 2.05417 15.4076 1.39252 14.4081 0.929054 13.2745L 0.558803 13.4259C 1.04215 14.6081 1.73311 15.652 2.63091 16.5562L 2.91475 16.2744ZM 0.929054 13.2745C 0.464711 12.1388 0.199999 10.9383 0.199999 9.60396L -0.200001 9.60396C -0.200001 10.9941 0.076325 12.2458 0.558803 13.4259L 0.929054 13.2745ZM 0.199999 9.60396C 0.199999 8.26958 0.464711 7.06917 0.929054 5.93342L 0.558803 5.78205C 0.076325 6.96215 -0.200001 8.21382 -0.200001 9.60396L 0.199999 9.60396ZM 0.929054 5.93342C 1.39252 4.79981 2.05417 3.80029 2.91475 2.93356L 2.63091 2.65172C 1.73311 3.55593 1.04215 4.59981 0.558803 5.78205L 0.929054 5.93342ZM 2.91475 2.93356C 3.77534 2.06683 4.76761 1.40061 5.8928 0.933989L 5.73957 0.564501C 4.56534 1.05146 3.5287 1.74751 2.63091 2.65172L 2.91475 2.93356ZM 5.8928 0.933989C 7.02014 0.466472 8.21153 0.2 9.53584 0.2L 9.53584 -0.2C 8.15494 -0.2 6.91165 0.0784336 5.73957 0.564501L 5.8928 0.933989ZM 9.53584 0.2C 10.8592 0.2 12.0488 0.466058 13.2414 0.999905L 13.4048 0.634812C 12.1628 0.0788476 10.9177 -0.2 9.53584 -0.2L 9.53584 0.2ZM 13.2375 0.998087C 14.3696 1.53464 15.3641 2.20314 16.2246 3.06978L 16.5084 2.78795C 15.6105 1.88365 14.5761 1.18989 13.4088 0.63663L 13.2375 0.998087ZM 16.2246 3.06978C 16.2909 3.13657 16.3954 3.24423 16.4471 3.40039L 16.8269 3.27471C 16.7433 3.02218 16.5773 2.85739 16.5084 2.78795L 16.2246 3.06978ZM 16.4579 3.42648C 16.5199 3.55139 16.5723 3.72311 16.5723 3.81434L 16.9723 3.81434C 16.9723 3.63311 16.8894 3.39616 16.8161 3.24861L 16.4579 3.42648ZM 16.5723 3.81434C 16.5723 4.05226 16.5156 4.17713 16.3902 4.26131L 16.6132 4.5934C 16.8936 4.40514 16.9723 4.12133 16.9723 3.81434L 16.5723 3.81434ZM 16.3902 4.26131C 16.2135 4.38 16.0487 4.4317 15.8931 4.4317L 15.8931 4.8317C 16.1432 4.8317 16.3842 4.74717 16.6132 4.5934L 16.3902 4.26131ZM 15.86 4.43446C 15.5162 4.49215 15.3317 4.37485 15.2483 4.24885L 14.9147 4.46964C 15.1018 4.75231 15.4583 4.90747 15.9262 4.82894L 15.86 4.43446Z"/>
<path id="path2_fill" d="M 6.01908 9.60396C 5.41041 9.39962 4.80174 9.19528 4.12544 8.92283C 3.44914 8.65038 2.84047 8.30981 2.29943 7.96924C 1.75839 7.56056 1.28498 7.15189 0.946825 6.60698C 0.608675 6.06207 0.405782 5.51717 0.405782 4.83604C 0.405782 4.08679 0.608675 3.40566 0.946825 2.79264C 1.28498 2.17962 1.75838 1.70283 2.23179 1.29415C 2.7052 0.885472 3.3815 0.544906 4.0578 0.340566C 4.7341 0.136227 5.41041 2.59831e-07 6.01908 2.59831e-07C 6.42486 2.59831e-07 6.89827 0.0681133 7.37168 0.136227C 7.84509 0.20434 8.31849 0.340566 8.79191 0.544905C 9.26532 0.749245 9.6711 0.953585 10.1445 1.29415C 10.5503 1.63472 10.9561 2.0434 11.3618 2.52019C 11.4971 2.72453 11.5647 2.92887 11.5647 3.13321C 11.5647 3.40566 11.4971 3.67811 11.2942 3.81434C 11.0913 4.01868 10.8884 4.08679 10.6179 4.08679C 10.2798 4.08679 10.0092 3.95057 9.80636 3.61C 9.53584 3.20132 9.26532 2.86075 8.9948 2.65641C 8.65665 2.45208 8.3185 2.24774 8.04798 2.11151C 7.70983 1.97528 7.37168 1.90717 7.03353 1.90717C 6.69538 1.90717 6.42486 1.83906 6.15434 1.83906C 5.74856 1.83906 5.34277 1.90717 4.86936 1.97528C 4.39595 2.0434 4.05781 2.24774 3.65203 2.45208C 3.31388 2.65641 2.97572 2.99698 2.7052 3.33755C 2.43468 3.67811 2.36705 4.15491 2.36705 4.76792C 2.36705 5.1766 2.56994 5.51717 2.90809 5.85774C 3.24624 6.1983 3.65202 6.47075 4.19306 6.67509C 4.66647 6.94755 5.20751 7.15189 5.74855 7.28811C 6.28959 7.49245 6.763 7.62868 7.10115 7.7649C 7.84508 8.03736 8.52139 8.37792 9.19769 8.65038C 9.80636 8.99094 10.3474 9.33151 10.8208 9.8083C 11.2942 10.2851 11.6324 10.7619 11.9029 11.3749C 12.1734 11.9879 12.3087 12.6691 12.3087 13.4864C 12.3087 14.3038 12.1058 15.053 11.7676 15.7341C 11.4295 16.4153 10.9561 17.0283 10.415 17.5732C 9.87399 18.1181 9.19769 18.4587 8.45376 18.7992C 7.70982 19.0717 6.9659 19.2079 6.15434 19.2079C 5.6133 19.2079 5.00462 19.1398 4.39595 19.0036C 3.78728 18.8674 3.17862 18.663 2.63758 18.3906C 2.09654 18.1181 1.55549 17.7775 1.14971 17.437C 0.676296 17.0283 0.338146 16.6196 0.135256 16.1428C 0.0676259 16.0066 -2.06391e-06 15.8023 -2.06391e-06 15.666C -2.06391e-06 15.3936 0.0676342 15.1892 0.270524 14.9849C 0.473415 14.7806 0.676305 14.7125 0.946825 14.7125C 1.35261 14.7125 1.62312 14.8487 1.75838 15.1892C 1.96127 15.5298 2.23179 15.8704 2.56994 16.1428C 2.90809 16.4153 3.31387 16.6196 3.71965 16.824C 4.12543 17.0283 4.53122 17.1645 5.00463 17.2326C 5.41041 17.3008 5.81619 17.3689 6.15434 17.3689C 6.69538 17.3689 7.23642 17.3008 7.70983 17.0964C 8.25087 16.8921 8.65665 16.6196 9.06243 16.2791C 9.46821 15.9385 9.73873 15.5298 10.0092 15.053C 10.2798 14.5762 10.3474 14.0994 10.3474 13.5545C 10.3474 13.0096 10.2121 12.5328 10.0092 12.1241C 9.80636 11.7155 9.53584 11.3749 9.13006 11.0343C 8.72428 10.7619 8.31849 10.4894 7.77745 10.217C 7.16878 10.0126 6.56012 9.8083 6.01908 9.60396Z"/>
<path id="path3_stroke" d="M 6.01908 9.60396L 6.08979 9.41673L 6.08273 9.41436L 6.01908 9.60396ZM 2.29943 7.96924L 2.17888 8.12883L 2.18568 8.13397L 2.19288 8.1385L 2.29943 7.96924ZM 0.946825 2.79264L 0.771701 2.69604L 0.946825 2.79264ZM 10.1445 1.29415L 10.2731 1.14096L 10.2674 1.13616L 10.2613 1.1318L 10.1445 1.29415ZM 11.3618 2.52019L 11.5286 2.4098L 11.522 2.39974L 11.5142 2.39056L 11.3618 2.52019ZM 11.2942 3.81434L 11.1827 3.64829L 11.1663 3.65935L 11.1523 3.67342L 11.2942 3.81434ZM 9.80636 3.61L 9.97837 3.50752L 9.97313 3.49961L 9.80636 3.61ZM 8.9948 2.65641L 9.11534 2.49683L 9.10709 2.49059L 9.09824 2.48524L 8.9948 2.65641ZM 8.04798 2.11151L 8.13793 1.93288L 8.13047 1.92912L 8.12272 1.926L 8.04798 2.11151ZM 3.65203 2.45208L 3.56207 2.27345L 3.55519 2.27691L 3.54859 2.2809L 3.65203 2.45208ZM 4.19306 6.67509L 4.29282 6.50175L 4.27883 6.4937L 4.26372 6.48799L 4.19306 6.67509ZM 5.74855 7.28811L 5.81922 7.10101L 5.8085 7.09696L 5.79739 7.09416L 5.74855 7.28811ZM 7.10115 7.7649L 7.02638 7.95051L 7.03237 7.95271L 7.10115 7.7649ZM 9.19769 8.65038L 9.29535 8.47584L 9.28424 8.46962L 9.27242 8.46486L 9.19769 8.65038ZM 8.45376 18.7992L 8.52253 18.987L 8.52989 18.9844L 8.537 18.9811L 8.45376 18.7992ZM 1.14971 17.437L 1.019 17.5884L 1.02113 17.5902L 1.14971 17.437ZM 0.135256 16.1428L 0.319602 16.0644L 0.314395 16.0539L 0.135256 16.1428ZM 1.75838 15.1892L 1.57251 15.2631L 1.5784 15.2779L 1.58656 15.2916L 1.75838 15.1892ZM 2.56994 16.1428L 2.44446 16.2986L 2.56994 16.1428ZM 5.00463 17.2326L 5.03775 17.0353L 5.03311 17.0347L 5.00463 17.2326ZM 7.70983 17.0964L 7.63909 16.9091L 7.63057 16.9128L 7.70983 17.0964ZM 9.13006 11.0343L 9.25863 10.8811L 9.25043 10.8743L 9.24154 10.8683L 9.13006 11.0343ZM 7.77745 10.217L 7.86741 10.0384L 7.85465 10.0319L 7.84111 10.0274L 7.77745 10.217ZM 6.08273 9.41436C 5.47367 9.20989 4.87027 9.00727 4.20017 8.73732L 4.0507 9.10834C 4.73321 9.38329 5.34715 9.58935 5.95543 9.79356L 6.08273 9.41436ZM 4.20017 8.73732C 3.53859 8.47079 2.94091 8.13671 2.40597 7.79998L 2.19288 8.1385C 2.74002 8.48291 3.35968 8.82996 4.0507 9.10834L 4.20017 8.73732ZM 2.41997 7.80965C 1.88321 7.40421 1.43462 7.01374 1.11676 6.50152L 0.776888 6.71244C 1.13533 7.29003 1.63356 7.71692 2.17888 8.12883L 2.41997 7.80965ZM 1.11676 6.50152C 0.793139 5.98003 0.605782 5.47125 0.605782 4.83604L 0.205782 4.83604C 0.205782 5.56308 0.42421 6.14412 0.776888 6.71244L 1.11676 6.50152ZM 0.605782 4.83604C 0.605782 4.12446 0.798132 3.47628 1.12195 2.88924L 0.771701 2.69604C 0.419217 3.33504 0.205782 4.04912 0.205782 4.83604L 0.605782 4.83604ZM 1.12195 2.88924C 1.44341 2.30648 1.89637 1.84792 2.36248 1.44554L 2.1011 1.14276C 1.62039 1.55774 1.12654 2.05276 0.771701 2.69604L 1.12195 2.88924ZM 2.36248 1.44554C 2.80974 1.05944 3.45912 0.730384 4.11565 0.532018L 3.99996 0.149114C 3.30388 0.359428 2.60066 0.711504 2.1011 1.14276L 2.36248 1.44554ZM 4.11565 0.532018C 4.78238 0.33057 5.43772 0.2 6.01908 0.2L 6.01908 -0.2C 5.38309 -0.2 4.68583 -0.0581167 3.99996 0.149114L 4.11565 0.532018ZM 6.01908 0.2C 6.40763 0.2 6.86568 0.265484 7.3432 0.334188L 7.40016 -0.061735C 6.93086 -0.129258 6.44209 -0.2 6.01908 -0.2L 6.01908 0.2ZM 7.3432 0.334188C 7.79782 0.399598 8.2542 0.530648 8.71265 0.72853L 8.87116 0.36128C 8.38279 0.150484 7.89236 0.00908179 7.40016 -0.061735L 7.3432 0.334188ZM 8.71265 0.72853C 9.1778 0.929304 9.56972 1.12703 10.0277 1.4565L 10.2613 1.1318C 9.77248 0.78014 9.35284 0.569186 8.87116 0.36128L 8.71265 0.72853ZM 10.0159 1.44735C 10.4118 1.77958 10.8097 2.18004 11.2095 2.64981L 11.5142 2.39056C 11.1024 1.90675 10.6888 1.48986 10.2731 1.14096L 10.0159 1.44735ZM 11.1951 2.63058C 11.313 2.8088 11.3647 2.97538 11.3647 3.13321L 11.7647 3.13321C 11.7647 2.88236 11.6812 2.64026 11.5286 2.4098L 11.1951 2.63058ZM 11.3647 3.13321C 11.3647 3.39015 11.2983 3.57072 11.1827 3.64829L 11.4057 3.98038C 11.6959 3.78551 11.7647 3.42117 11.7647 3.13321L 11.3647 3.13321ZM 11.1523 3.67342C 11.0673 3.75904 10.9888 3.80985 10.9092 3.8407C 10.8287 3.87188 10.7363 3.88679 10.6179 3.88679L 10.6179 4.28679C 10.77 4.28679 10.9144 4.26765 11.0537 4.21369C 11.1938 4.1594 11.3183 4.07397 11.4361 3.95526L 11.1523 3.67342ZM 10.6179 3.88679C 10.4764 3.88679 10.3596 3.85854 10.26 3.80209C 10.1603 3.74562 10.0653 3.65386 9.97818 3.50764L 9.63454 3.71236C 9.75032 3.90671 9.892 4.05334 10.0628 4.15012C 10.2337 4.24693 10.4213 4.28679 10.6179 4.28679L 10.6179 3.88679ZM 9.97313 3.49961C 9.7002 3.08729 9.41433 2.72267 9.11534 2.49683L 8.87425 2.816C 9.11631 2.99884 9.37147 3.31535 9.63958 3.72039L 9.97313 3.49961ZM 9.09824 2.48524C 8.76246 2.28233 8.41688 2.07335 8.13793 1.93288L 7.95803 2.29014C 8.22013 2.42212 8.55084 2.62182 8.89136 2.82759L 9.09824 2.48524ZM 8.12272 1.926C 7.76268 1.78095 7.39923 1.70717 7.03353 1.70717L 7.03353 2.10717C 7.34413 2.10717 7.65698 2.16961 7.97325 2.29702L 8.12272 1.926ZM 7.03353 1.70717C 6.87737 1.70717 6.73553 1.6915 6.59211 1.6745C 6.45208 1.65791 6.3039 1.63906 6.15434 1.63906L 6.15434 2.03906C 6.2753 2.03906 6.39763 2.05426 6.54504 2.07172C 6.68904 2.08879 6.85154 2.10717 7.03353 2.10717L 7.03353 1.70717ZM 6.15434 1.63906C 5.73043 1.63906 5.3064 1.71034 4.84088 1.77732L 4.89784 2.17324C 5.37914 2.104 5.76668 2.03906 6.15434 2.03906L 6.15434 1.63906ZM 4.84088 1.77732C 4.32678 1.85129 3.95252 2.07683 3.56207 2.27345L 3.74198 2.6307C 4.16309 2.41864 4.46512 2.2355 4.89784 2.17324L 4.84088 1.77732ZM 3.54859 2.2809C 3.18176 2.50257 2.82635 2.86348 2.54859 3.21315L 2.86181 3.46194C 3.12509 3.13048 3.44599 2.81026 3.75547 2.62325L 3.54859 2.2809ZM 2.54859 3.21315C 2.23189 3.61186 2.16705 4.15164 2.16705 4.76792L 2.56705 4.76792C 2.56705 4.15817 2.63747 3.74437 2.86181 3.46194L 2.54859 3.21315ZM 2.16705 4.76792C 2.16705 5.25219 2.41075 5.6407 2.76617 5.99865L 3.05002 5.71682C 2.72913 5.39364 2.56705 5.10101 2.56705 4.76792L 2.16705 4.76792ZM 2.76617 5.99865C 3.12497 6.36001 3.55521 6.64798 4.1224 6.86219L 4.26372 6.48799C 3.74883 6.29353 3.36752 6.03659 3.05002 5.71682L 2.76617 5.99865ZM 4.0933 6.84844C 4.58548 7.13169 5.1443 7.34221 5.69972 7.48206L 5.79739 7.09416C 5.27072 6.96156 4.74746 6.7634 4.29282 6.50175L 4.0933 6.84844ZM 5.67789 7.47521C 5.95237 7.57888 6.20932 7.66512 6.43729 7.74165C 6.66729 7.81887 6.86398 7.88498 7.02642 7.95042L 7.17589 7.57939C 7.00018 7.50861 6.79108 7.43849 6.56459 7.36245C 6.33605 7.28572 6.08578 7.20169 5.81922 7.10101L 5.67789 7.47521ZM 7.03237 7.95271C 7.39788 8.08657 7.74797 8.2376 8.0939 8.39056C 8.4381 8.54274 8.78078 8.69804 9.12296 8.83589L 9.27242 8.46486C 8.9383 8.33026 8.60468 8.17904 8.25566 8.02472C 7.90839 7.87117 7.54836 7.7157 7.16993 7.5771L 7.03237 7.95271ZM 9.10003 8.82491C 9.70439 9.16306 10.2256 9.49271 10.6789 9.94922L 10.9627 9.66738C 10.4692 9.1703 9.90833 8.81882 9.29535 8.47584L 9.10003 8.82491ZM 10.6789 9.94922C 11.1367 10.4103 11.4602 10.8671 11.7199 11.4556L 12.0859 11.2942C 11.8045 10.6566 11.4517 10.1598 10.9627 9.66738L 10.6789 9.94922ZM 11.7199 11.4556C 11.9775 12.0393 12.1087 12.6922 12.1087 13.4864L 12.5087 13.4864C 12.5087 12.6459 12.3694 11.9366 12.0859 11.2942L 11.7199 11.4556ZM 12.1087 13.4864C 12.1087 14.2695 11.9145 14.9885 11.5885 15.6452L 11.9468 15.8231C 12.297 15.1176 12.5087 14.3381 12.5087 13.4864L 12.1087 13.4864ZM 11.5885 15.6452C 11.262 16.3029 10.8028 16.8988 10.2731 17.4323L 10.557 17.7141C 11.1093 17.1578 11.597 16.5277 11.9468 15.8231L 11.5885 15.6452ZM 10.2731 17.4323C 9.76016 17.9489 9.11422 18.2769 8.37051 18.6174L 8.537 18.9811C 9.28115 18.6404 9.98783 18.2873 10.557 17.7141L 10.2731 17.4323ZM 8.38498 18.6114C 7.66266 18.876 6.94199 19.0079 6.15434 19.0079L 6.15434 19.4079C 6.9898 19.4079 7.75699 19.2674 8.52253 18.987L 8.38498 18.6114ZM 6.15434 19.0079C 5.62917 19.0079 5.03517 18.9417 4.43963 18.8084L 4.35227 19.1988C 4.97408 19.3379 5.59742 19.4079 6.15434 19.4079L 6.15434 19.0079ZM 4.43963 18.8084C 3.84404 18.6751 3.25139 18.4757 2.72753 18.2119L 2.54762 18.5692C 3.10584 18.8503 3.73053 19.0596 4.35227 19.1988L 4.43963 18.8084ZM 2.72753 18.2119C 2.19659 17.9446 1.6694 17.612 1.27828 17.2838L 1.02113 17.5902C 1.44157 17.943 1.99648 18.2917 2.54762 18.5692L 2.72753 18.2119ZM 1.2804 17.2856C 0.820925 16.8889 0.506227 16.5038 0.319287 16.0645L -0.048775 16.2211C 0.170066 16.7354 0.531667 17.1677 1.01901 17.5884L 1.2804 17.2856ZM 0.314395 16.0539C 0.252386 15.929 0.199998 15.7573 0.199998 15.666L -0.200002 15.666C -0.200002 15.8473 -0.117134 16.0842 -0.0438829 16.2318L 0.314395 16.0539ZM 0.199998 15.666C 0.199998 15.5464 0.214858 15.4529 0.246016 15.3713C 0.276826 15.2906 0.327456 15.2114 0.412448 15.1258L 0.128601 14.844C 0.0107023 14.9627 -0.0739309 15.0879 -0.127661 15.2286C -0.181044 15.3684 -0.200002 15.5132 -0.200002 15.666L 0.199998 15.666ZM 0.412448 15.1258C 0.497463 15.0402 0.575912 14.9894 0.655555 14.9585C 0.736061 14.9274 0.828395 14.9125 0.946825 14.9125L 0.946825 14.5125C 0.794735 14.5125 0.650364 14.5316 0.511071 14.5856C 0.370917 14.6398 0.246476 14.7253 0.128601 14.844L 0.412448 15.1258ZM 0.946825 14.9125C 1.12923 14.9125 1.26052 14.9434 1.35547 14.9971C 1.4462 15.0486 1.51952 15.1297 1.57251 15.2631L 1.94426 15.1154C 1.86198 14.9083 1.73241 14.751 1.55263 14.6491C 1.37706 14.5497 1.1702 14.5125 0.946825 14.5125L 0.946825 14.9125ZM 1.58656 15.2916C 1.7989 15.648 2.08411 16.0082 2.44446 16.2986L 2.69542 15.9871C 2.37948 15.7325 2.12364 15.4116 1.9302 15.0869L 1.58656 15.2916ZM 2.44446 16.2986C 2.80211 16.5867 3.22782 16.8002 3.6297 17.0026L 3.8096 16.6453C 3.39992 16.439 3.01408 16.2438 2.69542 15.9871L 2.44446 16.2986ZM 3.6297 17.0026C 4.05304 17.2158 4.47948 17.3591 4.97615 17.4306L 5.03311 17.0347C 4.58295 16.9699 4.19782 16.8408 3.8096 16.6453L 3.6297 17.0026ZM 4.97152 17.4299C 5.37215 17.4971 5.79601 17.5689 6.15434 17.5689L 6.15434 17.1689C 5.83636 17.1689 5.44866 17.1044 5.03774 17.0354L 4.97152 17.4299ZM 6.15434 17.5689C 6.70981 17.5689 7.28108 17.4993 7.78909 17.28L 7.63057 16.9128C 7.19176 17.1022 6.68094 17.1689 6.15434 17.1689L 6.15434 17.5689ZM 7.78049 17.2835C 8.34851 17.069 8.77357 16.7826 9.19101 16.4322L 8.93386 16.1259C 8.53974 16.4566 8.15324 16.7152 7.63917 16.9093L 7.78049 17.2835ZM 9.19101 16.4322C 9.62459 16.0683 9.90926 15.6345 10.1832 15.1517L 9.8353 14.9543C 9.5682 15.4251 9.31183 15.8086 8.93386 16.1259L 9.19101 16.4322ZM 10.1832 15.1517C 10.4775 14.6329 10.5474 14.1171 10.5474 13.5545L 10.1474 13.5545C 10.1474 14.0817 10.082 14.5195 9.8353 14.9543L 10.1832 15.1517ZM 10.5474 13.5545C 10.5474 12.9753 10.4034 12.4683 10.1884 12.0352L 9.83011 12.2131C 10.0209 12.5974 10.1474 13.0439 10.1474 13.5545L 10.5474 13.5545ZM 10.1884 12.0352C 9.97202 11.5994 9.6833 11.2376 9.25863 10.8811L 9.00148 11.1875C 9.38838 11.5122 9.64069 11.8315 9.83011 12.2131L 10.1884 12.0352ZM 9.24154 10.8683C 8.8358 10.5959 8.42078 10.317 7.86741 10.0384L 7.6875 10.3956C 8.2162 10.6618 8.61275 10.9279 9.01857 11.2004L 9.24154 10.8683ZM 7.84111 10.0274C 7.23158 9.82275 6.62664 9.61963 6.08974 9.41686L 5.94842 9.79106C 6.4936 9.99697 7.10599 10.2025 7.7138 10.4066L 7.84111 10.0274Z"/>
<path id="path4_fill" d="M 7.57457 0.681132C 7.6422 0.544906 7.77746 0.340566 7.91272 0.204339C 8.04798 0.0681129 8.25086 2.59831e-07 8.45375 2.59831e-07C 8.65664 2.59831e-07 8.85954 0.0681129 8.9948 0.204339C 9.13006 0.340566 9.26532 0.476793 9.33295 0.681132L 16.7046 17.9819C 16.7723 18.05 16.7723 18.1862 16.7723 18.3224C 16.7723 18.5949 16.7046 18.7992 16.5017 18.9355C 16.3665 19.1398 16.096 19.2079 15.8254 19.2079C 15.4197 19.2079 15.1491 19.0036 14.9462 18.663L 8.38613 3.54189L 1.82602 18.663C 1.75839 18.8674 1.62313 19.0036 1.48787 19.0717C 1.35261 19.1398 1.14971 19.2079 0.946823 19.2079C 0.676303 19.2079 0.473413 19.1398 0.270522 18.9355C 0.0676321 18.7311 -4.12781e-06 18.5268 -4.12781e-06 18.3224C -4.12781e-06 18.1862 0 18.05 0.0676301 17.9819L 7.57457 0.681132Z"/>
<path id="path5_stroke" d="M 7.57457 0.681132L 7.3952 0.59208L 7.3911 0.601522L 7.57457 0.681132ZM 7.91272 0.204339L 7.7708 0.0634222L 7.91272 0.204339ZM 8.9948 0.204339L 8.85287 0.345256L 8.9948 0.204339ZM 9.33295 0.681132L 9.14308 0.743974L 9.14569 0.751874L 9.14895 0.75953L 9.33295 0.681132ZM 16.7046 17.9819L 16.5206 18.0603L 16.5357 18.0956L 16.5627 18.1228L 16.7046 17.9819ZM 16.5017 18.9355L 16.3903 18.7694L 16.357 18.7917L 16.335 18.8251L 16.5017 18.9355ZM 14.9462 18.663L 14.7628 18.7426L 14.7679 18.7544L 14.7744 18.7654L 14.9462 18.663ZM 8.38613 3.54189L 8.56961 3.46229L 8.38613 3.03937L 8.20265 3.46229L 8.38613 3.54189ZM 1.82602 18.663L 1.64254 18.5834L 1.63897 18.5917L 1.63614 18.6002L 1.82602 18.663ZM 0.0676301 17.9819L 0.209554 18.1228L 0.236104 18.0961L 0.251103 18.0615L 0.0676301 17.9819ZM 7.75371 0.770066C 7.81355 0.649534 7.93704 0.463706 8.05465 0.345256L 7.7708 0.0634222C 7.61789 0.217425 7.47085 0.440278 7.39543 0.592198L 7.75371 0.770066ZM 8.05465 0.345256C 8.14399 0.255277 8.29097 0.2 8.45375 0.2L 8.45375 -0.2C 8.21076 -0.2 7.95198 -0.119051 7.7708 0.0634222L 8.05465 0.345256ZM 8.45375 0.2C 8.61655 0.2 8.76353 0.255278 8.85287 0.345256L 9.13672 0.0634222C 8.95554 -0.119053 8.69674 -0.2 8.45375 -0.2L 8.45375 0.2ZM 8.85287 0.345256C 8.99159 0.484966 9.09227 0.590454 9.14308 0.743974L 9.52282 0.618291C 9.43837 0.363131 9.26852 0.196165 9.13672 0.0634222L 8.85287 0.345256ZM 9.14895 0.75953L 16.5206 18.0603L 16.8886 17.9035L 9.51694 0.602734L 9.14895 0.75953ZM 16.5627 18.1228C 16.5507 18.1107 16.5593 18.1091 16.5658 18.1547C 16.5719 18.1976 16.5723 18.2507 16.5723 18.3224L 16.9723 18.3224C 16.9723 18.258 16.9726 18.1748 16.9618 18.0985C 16.9514 18.0249 16.9262 17.9212 16.8466 17.841L 16.5627 18.1228ZM 16.5723 18.3224C 16.5723 18.5604 16.5156 18.6852 16.3903 18.7694L 16.6132 19.1015C 16.8936 18.9132 16.9723 18.6294 16.9723 18.3224L 16.5723 18.3224ZM 16.335 18.8251C 16.258 18.9414 16.0796 19.0079 15.8254 19.0079L 15.8254 19.4079C 16.1124 19.4079 16.475 19.3382 16.6685 19.0459L 16.335 18.8251ZM 15.8254 19.0079C 15.6584 19.0079 15.5278 18.9666 15.419 18.8956C 15.3079 18.8233 15.2089 18.7131 15.1181 18.5607L 14.7744 18.7654C 14.8865 18.9535 15.0242 19.1158 15.2006 19.2307C 15.3791 19.3471 15.5867 19.4079 15.8254 19.4079L 15.8254 19.0079ZM 15.1297 18.5834L 8.56961 3.46229L 8.20265 3.62149L 14.7628 18.7426L 15.1297 18.5834ZM 8.20265 3.46229L 1.64254 18.5834L 2.00949 18.7426L 8.56961 3.62149L 8.20265 3.46229ZM 1.63614 18.6002C 1.58547 18.7533 1.48671 18.8483 1.39791 18.8931L 1.57782 19.2503C 1.75954 19.1588 1.9313 18.9814 2.01589 18.7259L 1.63614 18.6002ZM 1.39791 18.8931C 1.28141 18.9517 1.10963 19.0079 0.946823 19.0079L 0.946823 19.4079C 1.1898 19.4079 1.4238 19.3279 1.57782 19.2503L 1.39791 18.8931ZM 0.946823 19.0079C 0.828393 19.0079 0.736058 18.993 0.655553 18.9618C 0.57591 18.931 0.49746 18.8802 0.412446 18.7946L 0.128599 19.0764C 0.246474 19.1951 0.370915 19.2805 0.51107 19.3348C 0.650362 19.3888 0.794733 19.4079 0.946823 19.4079L 0.946823 19.0079ZM 0.412446 18.7946C 0.246478 18.6274 0.199996 18.4736 0.199996 18.3224L -0.200004 18.3224C -0.200004 18.58 -0.111214 18.8349 0.128599 19.0764L 0.412446 18.7946ZM 0.199996 18.3224C 0.199996 18.2507 0.200384 18.1976 0.206469 18.1547C 0.212938 18.1091 0.221596 18.1107 0.209554 18.1228L -0.0742937 17.841C -0.153966 17.9212 -0.179125 18.0249 -0.189566 18.0985C -0.20039 18.1748 -0.200004 18.258 -0.200004 18.3224L 0.199996 18.3224ZM 0.251103 18.0615L 7.75804 0.760743L 7.3911 0.601522L -0.115843 17.9023L 0.251103 18.0615Z"/>
<path id="path6_fill" d="M 7.57456 0.681132C 7.64219 0.544906 7.77745 0.340566 7.91271 0.204339C 8.04797 0.0681129 8.25087 2.59831e-07 8.45376 2.59831e-07C 8.65665 2.59831e-07 8.85953 0.0681129 8.99479 0.204339C 9.13005 0.340566 9.26531 0.476793 9.33294 0.681132L 16.7722 17.9819C 16.8399 18.05 16.8399 18.1862 16.8399 18.3224C 16.8399 18.5949 16.7723 18.7992 16.5694 18.9355C 16.4341 19.1398 16.1636 19.2079 15.8931 19.2079C 15.4873 19.2079 15.2168 19.0036 15.0139 18.663L 8.45376 3.54189L 1.826 18.663C 1.75837 18.8674 1.62311 19.0036 1.48785 19.0717C 1.35259 19.1398 1.14971 19.2079 0.946821 19.2079C 0.676301 19.2079 0.47341 19.1398 0.27052 18.9355C 0.0676301 18.7311 4.12781e-06 18.5268 4.12781e-06 18.3224C 4.12781e-06 18.1862 8.25361e-06 18.05 0.0676383 17.9819L 7.57456 0.681132Z"/>
<path id="path7_stroke" d="M 7.57456 0.681132L 7.39518 0.59208L 7.39109 0.601522L 7.57456 0.681132ZM 8.99479 0.204339L 8.85287 0.345256L 8.99479 0.204339ZM 9.33294 0.681132L 9.14307 0.743974L 9.14579 0.752188L 9.14921 0.760138L 9.33294 0.681132ZM 16.7722 17.9819L 16.5885 18.0609L 16.6035 18.0958L 16.6303 18.1228L 16.7722 17.9819ZM 16.5694 18.9355L 16.4579 18.7694L 16.4247 18.7917L 16.4026 18.8251L 16.5694 18.9355ZM 15.0139 18.663L 14.8304 18.7426L 14.8355 18.7544L 14.842 18.7654L 15.0139 18.663ZM 8.45376 3.54189L 8.63724 3.46229L 8.4547 3.04154L 8.27058 3.4616L 8.45376 3.54189ZM 1.826 18.663L 1.64283 18.5827L 1.63907 18.5913L 1.63613 18.6002L 1.826 18.663ZM 0.0676383 17.9819L 0.209562 18.1228L 0.236112 18.0961L 0.251111 18.0615L 0.0676383 17.9819ZM 7.7537 0.770066C 7.81354 0.649534 7.93702 0.463706 8.05463 0.345256L 7.77078 0.0634222C 7.61787 0.217425 7.47084 0.440278 7.39542 0.592198L 7.7537 0.770066ZM 8.05463 0.345256C 8.14397 0.25528 8.29097 0.2 8.45376 0.2L 8.45376 -0.2C 8.21078 -0.2 7.95197 -0.119054 7.77078 0.0634222L 8.05463 0.345256ZM 8.45376 0.2C 8.61655 0.2 8.76353 0.255277 8.85287 0.345256L 9.13672 0.0634222C 8.95554 -0.119051 8.69675 -0.2 8.45376 -0.2L 8.45376 0.2ZM 8.85287 0.345256C 8.99159 0.484966 9.09226 0.590454 9.14307 0.743974L 9.52281 0.618291C 9.43836 0.363131 9.26852 0.196165 9.13672 0.0634222L 8.85287 0.345256ZM 9.14921 0.760138L 16.5885 18.0609L 16.956 17.9029L 9.51668 0.602127L 9.14921 0.760138ZM 16.6303 18.1228C 16.6183 18.1107 16.6269 18.1091 16.6334 18.1547C 16.6395 18.1976 16.6399 18.2507 16.6399 18.3224L 17.0399 18.3224C 17.0399 18.258 17.0403 18.1748 17.0294 18.0985C 17.019 18.0249 16.9938 17.9212 16.9142 17.841L 16.6303 18.1228ZM 16.6399 18.3224C 16.6399 18.5604 16.5833 18.6852 16.4579 18.7694L 16.6809 19.1015C 16.9613 18.9132 17.0399 18.6294 17.0399 18.3224L 16.6399 18.3224ZM 16.4026 18.8251C 16.3256 18.9414 16.1472 19.0079 15.8931 19.0079L 15.8931 19.4079C 16.18 19.4079 16.5426 19.3382 16.7361 19.0459L 16.4026 18.8251ZM 15.8931 19.0079C 15.7261 19.0079 15.5955 18.9666 15.4866 18.8956C 15.3755 18.8233 15.2765 18.7131 15.1857 18.5607L 14.842 18.7654C 14.9541 18.9535 15.0918 19.1158 15.2682 19.2307C 15.4467 19.3471 15.6543 19.4079 15.8931 19.4079L 15.8931 19.0079ZM 15.1973 18.5834L 8.63724 3.46229L 8.27028 3.62149L 14.8304 18.7426L 15.1973 18.5834ZM 8.27058 3.4616L 1.64283 18.5827L 2.00918 18.7433L 8.63694 3.62217L 8.27058 3.4616ZM 1.63613 18.6002C 1.58546 18.7533 1.4867 18.8483 1.3979 18.8931L 1.57781 19.2503C 1.75953 19.1588 1.93129 18.9814 2.01587 18.7259L 1.63613 18.6002ZM 1.3979 18.8931C 1.2814 18.9517 1.10963 19.0079 0.946821 19.0079L 0.946821 19.4079C 1.1898 19.4079 1.42379 19.3279 1.57781 19.2503L 1.3979 18.8931ZM 0.946821 19.0079C 0.82839 19.0079 0.736056 18.993 0.655551 18.9618C 0.575908 18.931 0.497458 18.8802 0.412444 18.7946L 0.128596 19.0764C 0.246472 19.1951 0.370913 19.2805 0.511068 19.3348C 0.65036 19.3888 0.794731 19.4079 0.946821 19.4079L 0.946821 19.0079ZM 0.412444 18.7946C 0.246481 18.6274 0.200004 18.4736 0.200004 18.3224L -0.199996 18.3224C -0.199996 18.58 -0.111221 18.8349 0.128596 19.0764L 0.412444 18.7946ZM 0.200004 18.3224C 0.200004 18.2507 0.200392 18.1976 0.206477 18.1547C 0.212947 18.1091 0.221605 18.1107 0.209562 18.1228L -0.0742855 17.841C -0.153958 17.9212 -0.179117 18.0249 -0.189557 18.0985C -0.200382 18.1748 -0.199996 18.258 -0.199996 18.3224L 0.200004 18.3224ZM 0.251111 18.0615L 7.75803 0.760742L 7.39109 0.601522L -0.115834 17.9023L 0.251111 18.0615Z"/>
<path id="path8_fill" d="M 7.57457 0.681132C 7.6422 0.544906 7.77746 0.340566 7.91272 0.204339C 8.04798 0.0681129 8.25087 2.59831e-07 8.45376 2.59831e-07C 8.65665 2.59831e-07 8.85953 0.0681129 8.99479 0.204339C 9.13005 0.340566 9.26531 0.476793 9.33294 0.681132L 16.7046 17.9819C 16.7723 18.05 16.7723 18.1862 16.7723 18.3224C 16.7723 18.5949 16.7046 18.7992 16.5017 18.9355C 16.3665 19.1398 16.096 19.2079 15.8254 19.2079C 15.4197 19.2079 15.1491 19.0036 14.9462 18.663L 8.38613 3.54189L 1.82601 18.663C 1.75838 18.8674 1.62312 19.0036 1.48786 19.0717C 1.3526 19.1398 1.14971 19.2079 0.946821 19.2079C 0.676301 19.2079 0.47341 19.1398 0.27052 18.9355C 0.0676301 18.7311 4.12781e-06 18.5268 4.12781e-06 18.3224C 4.12781e-06 18.1862 -2.06592e-06 18.05 0.067628 17.9819L 7.57457 0.681132Z"/>
<path id="path9_stroke" d="M 7.57457 0.681132L 7.39519 0.59208L 7.3911 0.601522L 7.57457 0.681132ZM 7.91272 0.204339L 7.7708 0.0634222L 7.91272 0.204339ZM 8.99479 0.204339L 8.85287 0.345256L 8.99479 0.204339ZM 9.33294 0.681132L 9.14307 0.743974L 9.14569 0.751874L 9.14895 0.75953L 9.33294 0.681132ZM 16.7046 17.9819L 16.5206 18.0603L 16.5357 18.0956L 16.5627 18.1228L 16.7046 17.9819ZM 16.5017 18.9355L 16.3902 18.7694L 16.357 18.7917L 16.335 18.8251L 16.5017 18.9355ZM 14.9462 18.663L 14.7628 18.7426L 14.7679 18.7544L 14.7744 18.7654L 14.9462 18.663ZM 8.38613 3.54189L 8.5696 3.46229L 8.38613 3.03937L 8.20265 3.46229L 8.38613 3.54189ZM 1.82601 18.663L 1.64254 18.5834L 1.63896 18.5917L 1.63614 18.6002L 1.82601 18.663ZM 0.067628 17.9819L 0.209552 18.1228L 0.236102 18.0961L 0.251101 18.0615L 0.067628 17.9819ZM 7.75371 0.770066C 7.81355 0.649534 7.93703 0.463706 8.05464 0.345256L 7.7708 0.0634222C 7.61788 0.217425 7.47085 0.440278 7.39543 0.592198L 7.75371 0.770066ZM 8.05464 0.345256C 8.14398 0.255278 8.29097 0.2 8.45376 0.2L 8.45376 -0.2C 8.21077 -0.2 7.95198 -0.119053 7.7708 0.0634222L 8.05464 0.345256ZM 8.45376 0.2C 8.61655 0.2 8.76353 0.255277 8.85287 0.345256L 9.13672 0.0634222C 8.95554 -0.119051 8.69675 -0.2 8.45376 -0.2L 8.45376 0.2ZM 8.85287 0.345256C 8.99159 0.484966 9.09226 0.590454 9.14307 0.743974L 9.52281 0.618291C 9.43836 0.363131 9.26852 0.196165 9.13672 0.0634222L 8.85287 0.345256ZM 9.14895 0.75953L 16.5206 18.0603L 16.8886 17.9035L 9.51694 0.602734L 9.14895 0.75953ZM 16.5627 18.1228C 16.5507 18.1107 16.5593 18.1091 16.5658 18.1547C 16.5719 18.1976 16.5723 18.2507 16.5723 18.3224L 16.9723 18.3224C 16.9723 18.258 16.9726 18.1748 16.9618 18.0985C 16.9514 18.0249 16.9262 17.9212 16.8466 17.841L 16.5627 18.1228ZM 16.5723 18.3224C 16.5723 18.5604 16.5156 18.6852 16.3902 18.7694L 16.6132 19.1015C 16.8936 18.9132 16.9723 18.6294 16.9723 18.3224L 16.5723 18.3224ZM 16.335 18.8251C 16.258 18.9414 16.0796 19.0079 15.8254 19.0079L 15.8254 19.4079C 16.1124 19.4079 16.475 19.3382 16.6685 19.0459L 16.335 18.8251ZM 15.8254 19.0079C 15.6584 19.0079 15.5278 18.9666 15.4189 18.8956C 15.3079 18.8233 15.2089 18.7131 15.1181 18.5607L 14.7744 18.7654C 14.8865 18.9535 15.0242 19.1158 15.2006 19.2307C 15.3791 19.3471 15.5867 19.4079 15.8254 19.4079L 15.8254 19.0079ZM 15.1297 18.5834L 8.5696 3.46229L 8.20265 3.62149L 14.7628 18.7426L 15.1297 18.5834ZM 8.20265 3.46229L 1.64254 18.5834L 2.00949 18.7426L 8.5696 3.62149L 8.20265 3.46229ZM 1.63614 18.6002C 1.58547 18.7533 1.48671 18.8483 1.39791 18.8931L 1.57782 19.2503C 1.75954 19.1588 1.9313 18.9814 2.01588 18.7259L 1.63614 18.6002ZM 1.39791 18.8931C 1.28141 18.9517 1.10963 19.0079 0.946821 19.0079L 0.946821 19.4079C 1.18979 19.4079 1.4238 19.3279 1.57782 19.2503L 1.39791 18.8931ZM 0.946821 19.0079C 0.828391 19.0079 0.736056 18.993 0.655551 18.9618C 0.575908 18.931 0.497458 18.8802 0.412444 18.7946L 0.128596 19.0764C 0.246472 19.1951 0.370913 19.2805 0.511068 19.3348C 0.65036 19.3888 0.794731 19.4079 0.946821 19.4079L 0.946821 19.0079ZM 0.412444 18.7946C 0.246481 18.6274 0.200004 18.4736 0.200004 18.3224L -0.199996 18.3224C -0.199996 18.58 -0.111221 18.8349 0.128596 19.0764L 0.412444 18.7946ZM 0.200004 18.3224C 0.200004 18.2507 0.20039 18.1976 0.206473 18.1547C 0.212941 18.1091 0.221599 18.1107 0.209552 18.1228L -0.0742958 17.841C -0.153973 17.9212 -0.179127 18.0249 -0.189564 18.0985C -0.200385 18.1748 -0.199996 18.258 -0.199996 18.3224L 0.200004 18.3224ZM 0.251101 18.0615L 7.75804 0.760742L 7.3911 0.601522L -0.115845 17.9023L 0.251101 18.0615Z"/>
<path id="path10_fill" d="M 7.57456 0.681132C 7.64219 0.544906 7.77745 0.340566 7.91271 0.204339C 8.04797 0.0681129 8.25086 2.59831e-07 8.45376 2.59831e-07C 8.65665 2.59831e-07 8.85954 0.0681129 8.9948 0.204339C 9.13006 0.340566 9.26532 0.476793 9.33295 0.681132L 16.7723 17.9819C 16.8399 18.05 16.8399 18.1862 16.8399 18.3224C 16.8399 18.5949 16.7723 18.7992 16.5694 18.9355C 16.4341 19.1398 16.1636 19.2079 15.8931 19.2079C 15.4873 19.2079 15.2168 19.0036 15.0139 18.663L 8.45376 3.54189L 1.82601 18.663C 1.75838 18.8674 1.62312 19.0036 1.48786 19.0717C 1.3526 19.1398 1.14971 19.2079 0.94682 19.2079C 0.6763 19.2079 0.473409 19.1398 0.270519 18.9355C 0.067629 18.7311 -2.06391e-06 18.5268 -2.06391e-06 18.3224C -2.06391e-06 18.1862 2.06088e-06 18.05 0.0676321 17.9819L 7.57456 0.681132Z"/>
<path id="path11_stroke" d="M 7.57456 0.681132L 7.39519 0.59208L 7.39109 0.601522L 7.57456 0.681132ZM 8.9948 0.204339L 8.85287 0.345256L 8.9948 0.204339ZM 9.33295 0.681132L 9.14308 0.743974L 9.1458 0.752188L 9.14921 0.760138L 9.33295 0.681132ZM 16.7723 17.9819L 16.5885 18.0609L 16.6035 18.0958L 16.6303 18.1228L 16.7723 17.9819ZM 16.5694 18.9355L 16.4579 18.7694L 16.4247 18.7917L 16.4026 18.8251L 16.5694 18.9355ZM 15.0139 18.663L 14.8304 18.7426L 14.8355 18.7544L 14.842 18.7654L 15.0139 18.663ZM 8.45376 3.54189L 8.63723 3.46229L 8.4547 3.04154L 8.27058 3.4616L 8.45376 3.54189ZM 1.82601 18.663L 1.64284 18.5827L 1.63908 18.5913L 1.63614 18.6002L 1.82601 18.663ZM 0.0676321 17.9819L 0.209556 18.1228L 0.236106 18.0961L 0.251105 18.0615L 0.0676321 17.9819ZM 7.7537 0.770066C 7.81354 0.649534 7.93703 0.463706 8.05464 0.345256L 7.77079 0.0634222C 7.61788 0.217425 7.47084 0.440278 7.39542 0.592198L 7.7537 0.770066ZM 8.05464 0.345256C 8.14398 0.255278 8.29096 0.2 8.45376 0.2L 8.45376 -0.2C 8.21077 -0.2 7.95197 -0.119053 7.77079 0.0634222L 8.05464 0.345256ZM 8.45376 0.2C 8.61655 0.2 8.76353 0.255278 8.85287 0.345256L 9.13672 0.0634222C 8.95554 -0.119053 8.69674 -0.2 8.45376 -0.2L 8.45376 0.2ZM 8.85287 0.345256C 8.99159 0.484966 9.09227 0.590454 9.14308 0.743974L 9.52282 0.618291C 9.43837 0.363131 9.26852 0.196165 9.13672 0.0634222L 8.85287 0.345256ZM 9.14921 0.760138L 16.5885 18.0609L 16.956 17.9029L 9.51668 0.602127L 9.14921 0.760138ZM 16.6303 18.1228C 16.6183 18.1107 16.6269 18.1091 16.6334 18.1547C 16.6395 18.1976 16.6399 18.2507 16.6399 18.3224L 17.0399 18.3224C 17.0399 18.258 17.0403 18.1748 17.0294 18.0985C 17.019 18.0249 16.9939 17.9212 16.9142 17.841L 16.6303 18.1228ZM 16.6399 18.3224C 16.6399 18.5604 16.5833 18.6852 16.4579 18.7694L 16.6808 19.1015C 16.9612 18.9132 17.0399 18.6294 17.0399 18.3224L 16.6399 18.3224ZM 16.4026 18.8251C 16.3256 18.9414 16.1472 19.0079 15.8931 19.0079L 15.8931 19.4079C 16.18 19.4079 16.5426 19.3382 16.7361 19.0459L 16.4026 18.8251ZM 15.8931 19.0079C 15.726 19.0079 15.5955 18.9666 15.4866 18.8956C 15.3755 18.8233 15.2765 18.7131 15.1857 18.5607L 14.842 18.7654C 14.9541 18.9535 15.0918 19.1158 15.2682 19.2307C 15.4467 19.3471 15.6543 19.4079 15.8931 19.4079L 15.8931 19.0079ZM 15.1973 18.5834L 8.63723 3.46229L 8.27028 3.62149L 14.8304 18.7426L 15.1973 18.5834ZM 8.27058 3.4616L 1.64284 18.5827L 2.00919 18.7433L 8.63693 3.62217L 8.27058 3.4616ZM 1.63614 18.6002C 1.58546 18.7533 1.48671 18.8483 1.39791 18.8931L 1.57782 19.2503C 1.75954 19.1588 1.9313 18.9814 2.01588 18.7259L 1.63614 18.6002ZM 1.39791 18.8931C 1.28141 18.9517 1.10963 19.0079 0.94682 19.0079L 0.94682 19.4079C 1.18979 19.4079 1.4238 19.3279 1.57782 19.2503L 1.39791 18.8931ZM 0.94682 19.0079C 0.828389 19.0079 0.736055 18.993 0.65555 18.9618C 0.575907 18.931 0.497457 18.8802 0.412443 18.7946L 0.128595 19.0764C 0.246471 19.1951 0.370912 19.2805 0.511067 19.3348C 0.650359 19.3888 0.79473 19.4079 0.94682 19.4079L 0.94682 19.0079ZM 0.412443 18.7946C 0.246477 18.6274 0.199998 18.4736 0.199998 18.3224L -0.200002 18.3224C -0.200002 18.58 -0.111219 18.8349 0.128595 19.0764L 0.412443 18.7946ZM 0.199998 18.3224C 0.199998 18.2507 0.200386 18.1976 0.206471 18.1547C 0.21294 18.1091 0.221599 18.1107 0.209556 18.1228L -0.0742917 17.841C -0.153964 17.9212 -0.179123 18.0249 -0.189564 18.0985C -0.200388 18.1748 -0.200002 18.258 -0.200002 18.3224L 0.199998 18.3224ZM 0.251105 18.0615L 7.75804 0.760742L 7.39109 0.601522L -0.115841 17.9023L 0.251105 18.0615Z"/>
<path id="path12_fill" d="M -4.12781e-06 1.0217C -4.12781e-06 0.817358 0.0676321 0.613019 0.270522 0.340566C 0.473412 0.136226 0.676303 0 0.946823 0C 1.21734 0 1.42023 0.0681129 1.62312 0.272453C 1.75838 0.476792 1.89364 0.681132 1.89364 0.953584L 1.89364 12.5328C 1.89364 13.214 2.0289 13.827 2.29942 14.3719C 2.56994 14.9849 2.90809 15.4617 3.31387 15.8704C 3.71966 16.2791 4.2607 16.6196 4.86937 16.8921C 5.47804 17.1645 6.0867 17.3008 6.763 17.3008C 7.4393 17.3008 8.04798 17.1645 8.58902 16.8921C 9.19769 16.6196 9.67109 16.2791 10.1445 15.8704C 10.5503 15.4617 10.9561 14.9168 11.2266 14.3719C 11.4971 13.7589 11.6324 13.1458 11.6324 12.5328L 11.6324 1.0217C 11.6324 0.817358 11.7 0.613019 11.9029 0.340566C 12.1058 0.0681132 12.3087 0 12.5792 0C 12.8497 0 13.0526 0.136226 13.2555 0.340566C 13.3908 0.544906 13.526 0.817358 13.526 1.0217L 13.526 12.6009C 13.526 13.5545 13.3231 14.3719 12.985 15.1892C 12.6468 16.0066 12.1734 16.6877 11.5647 17.3008C 10.9561 17.9138 10.2798 18.3906 9.4682 18.7311C 8.65664 19.0717 7.77746 19.276 6.89827 19.276C 5.95145 19.276 5.13989 19.0717 4.32833 18.7311C 3.51676 18.3906 2.84046 17.9138 2.23179 17.3008C 1.62312 16.6877 1.14972 16.0066 0.811565 15.1892C 0.473415 14.3719 0.270522 13.4864 0.270522 12.6009L 0.270522 1.0217L -4.12781e-06 1.0217Z"/>
<path id="path13_stroke" d="M -4.12781e-06 1.0217L -0.200004 1.0217L -0.200004 1.2217L -4.12781e-06 1.2217L -4.12781e-06 1.0217ZM 0.270522 0.340566L 0.128598 0.199649L 0.118594 0.209725L 0.110114 0.221113L 0.270522 0.340566ZM 1.62312 0.272453L 1.7899 0.162059L 1.77898 0.145569L 1.76505 0.131535L 1.62312 0.272453ZM 2.29942 14.3719L 2.48259 14.2911L 2.47856 14.283L 2.29942 14.3719ZM 3.31387 15.8704L 3.17195 16.0113L 3.31387 15.8704ZM 8.58902 16.8921L 8.50723 16.7093L 8.49907 16.7134L 8.58902 16.8921ZM 10.1445 15.8704L 10.2752 16.0218L 10.281 16.0167L 10.2864 16.0113L 10.1445 15.8704ZM 11.2266 14.3719L 11.4059 14.4609L 11.4096 14.4526L 11.2266 14.3719ZM 11.9029 0.340566L 11.7425 0.221113L 11.9029 0.340566ZM 13.2555 0.340566L 13.4223 0.230173L 13.4113 0.213682L 13.3974 0.199649L 13.2555 0.340566ZM 0.270522 1.0217L 0.470522 1.0217L 0.470522 0.821698L 0.270522 0.821698L 0.270522 1.0217ZM 0.199996 1.0217C 0.199996 0.872121 0.245732 0.708715 0.430931 0.460019L 0.110114 0.221113C -0.110468 0.517322 -0.200004 0.762596 -0.200004 1.0217L 0.199996 1.0217ZM 0.412446 0.481483C 0.601164 0.291417 0.755493 0.2 0.946823 0.2L 0.946823 -0.2C 0.597112 -0.2 0.345661 -0.0189643 0.128598 0.199649L 0.412446 0.481483ZM 0.946823 0.2C 1.06525 0.2 1.15759 0.214911 1.23809 0.246096C 1.31774 0.276947 1.39619 0.327748 1.4812 0.41337L 1.76505 0.131535C 1.64717 0.0128176 1.52273 -0.0726074 1.38258 -0.126898C 1.24328 -0.180855 1.09891 -0.2 0.946823 -0.2L 0.946823 0.2ZM 1.45635 0.382846C 1.59579 0.593503 1.69364 0.749807 1.69364 0.953584L 2.09364 0.953584C 2.09364 0.612456 1.92097 0.360081 1.7899 0.162059L 1.45635 0.382846ZM 1.69364 0.953584L 1.69364 12.5328L 2.09364 12.5328L 2.09364 0.953584L 1.69364 0.953584ZM 1.69364 12.5328C 1.69364 13.2411 1.83448 13.8851 2.12029 14.4608L 2.47856 14.283C 2.22333 13.7688 2.09364 13.1868 2.09364 12.5328L 1.69364 12.5328ZM 2.11645 14.4526C 2.39704 15.0885 2.74925 15.5856 3.17195 16.0113L 3.4558 15.7295C 3.06694 15.3378 2.74285 14.8813 2.4824 14.2911L 2.11645 14.4526ZM 3.17195 16.0113C 3.60013 16.4425 4.16418 16.7955 4.78766 17.0746L 4.95108 16.7095C 4.35722 16.4437 3.83918 16.1156 3.4558 15.7295L 3.17195 16.0113ZM 4.78766 17.0746C 5.42103 17.3581 6.05746 17.5008 6.763 17.5008L 6.763 17.1008C 6.11594 17.1008 5.53505 16.9709 4.95108 16.7095L 4.78766 17.0746ZM 6.763 17.5008C 7.46686 17.5008 8.10692 17.3588 8.67897 17.0707L 8.49907 16.7134C 7.98904 16.9703 7.41174 17.1008 6.763 17.1008L 6.763 17.5008ZM 8.67073 17.0746C 9.30274 16.7917 9.79255 16.4384 10.2752 16.0218L 10.0138 15.719C 9.54964 16.1197 9.09264 16.4475 8.50731 16.7095L 8.67073 17.0746ZM 10.2864 16.0113C 10.7058 15.589 11.1247 15.0268 11.4057 14.4608L 11.0475 14.283C 10.7874 14.8067 10.3948 15.3344 10.0026 15.7295L 10.2864 16.0113ZM 11.4096 14.4526C 11.6903 13.8166 11.8324 13.1762 11.8324 12.5328L 11.4324 12.5328C 11.4324 13.1155 11.304 13.7012 11.0436 14.2911L 11.4096 14.4526ZM 11.8324 12.5328L 11.8324 1.0217L 11.4324 1.0217L 11.4324 12.5328L 11.8324 12.5328ZM 11.8324 1.0217C 11.8324 0.872116 11.8781 0.70871 12.0633 0.460019L 11.7425 0.221113C 11.5219 0.517327 11.4324 0.762601 11.4324 1.0217L 11.8324 1.0217ZM 12.0633 0.460019C 12.15 0.343608 12.2271 0.283371 12.3 0.249477C 12.3739 0.215105 12.4603 0.2 12.5792 0.2L 12.5792 -0.2C 12.4276 -0.2 12.2772 -0.181048 12.1314 -0.11325C 11.9845 -0.0449743 11.8587 0.0650714 11.7425 0.221113L 12.0633 0.460019ZM 12.5792 0.2C 12.7705 0.2 12.9248 0.291417 13.1136 0.481483L 13.3974 0.199649C 13.1804 -0.0189643 12.9289 -0.2 12.5792 -0.2L 12.5792 0.2ZM 13.0887 0.450959C 13.1513 0.545476 13.2125 0.653892 13.2574 0.759442C 13.3037 0.868173 13.326 0.958535 13.326 1.0217L 13.726 1.0217C 13.726 0.880521 13.6807 0.732487 13.6255 0.602822C 13.569 0.469975 13.495 0.339996 13.4223 0.230173L 13.0887 0.450959ZM 13.326 1.0217L 13.326 12.6009L 13.726 12.6009L 13.726 1.0217L 13.326 1.0217ZM 13.326 12.6009C 13.326 13.5234 13.1303 14.3147 12.8002 15.1128L 13.1698 15.2657C 13.5159 14.4291 13.726 13.5857 13.726 12.6009L 13.326 12.6009ZM 12.8002 15.1128C 12.4729 15.9039 12.0149 16.5636 11.4228 17.1598L 11.7067 17.4417C 12.332 16.8119 12.8208 16.1093 13.1698 15.2657L 12.8002 15.1128ZM 11.4228 17.1598C 10.8308 17.7561 10.1759 18.2172 9.39081 18.5467L 9.5456 18.9155C 10.3836 18.5639 11.0814 18.0714 11.7067 17.4417L 11.4228 17.1598ZM 9.39081 18.5467C 8.59979 18.8787 7.7469 19.076 6.89827 19.076L 6.89827 19.476C 7.80803 19.476 8.7135 19.2647 9.5456 18.9155L 9.39081 18.5467ZM 6.89827 19.076C 5.98304 19.076 5.19787 18.8791 4.40572 18.5467L 4.25094 18.9155C 5.0819 19.2643 5.91985 19.476 6.89827 19.476L 6.89827 19.076ZM 4.40572 18.5467C 3.6206 18.2172 2.96576 17.7561 2.37371 17.1598L 2.08987 17.4417C 2.71516 18.0714 3.41293 18.5639 4.25094 18.9155L 4.40572 18.5467ZM 2.37371 17.1598C 1.78168 16.5636 1.32367 15.9039 0.996374 15.1128L 0.626756 15.2657C 0.975761 16.1093 1.46456 16.8119 2.08987 17.4417L 2.37371 17.1598ZM 0.996374 15.1128C 0.666653 14.3158 0.470522 13.4563 0.470522 12.6009L 0.0705223 12.6009C 0.0705223 13.5165 0.280176 14.428 0.626756 15.2657L 0.996374 15.1128ZM 0.470522 12.6009L 0.470522 1.0217L 0.0705223 1.0217L 0.0705223 12.6009L 0.470522 12.6009ZM 0.270522 0.821698L -4.12781e-06 0.821698L -4.12781e-06 1.2217L 0.270522 1.2217L 0.270522 0.821698Z"/>
<path id="path14_fill" d="M 0.0676342 0.953585C 0.0676342 0.681132 0.13526 0.476792 0.33815 0.272453C 0.54104 0.0681132 0.743931 2.59831e-07 1.01445 2.59831e-07L 5.95144 2.59831e-07C 6.69537 2.59831e-07 7.37167 0.136226 7.98034 0.408679C 8.58901 0.681132 9.13007 1.0217 9.60348 1.49849C 10.0769 1.97528 10.415 2.52019 10.6855 3.13321C 10.9561 3.74623 11.0913 4.42736 11.0913 5.10849C 11.0913 5.72151 10.9561 6.33453 10.7532 6.94755C 10.5503 7.49245 10.2121 8.03736 9.87399 8.44604C 9.46821 8.92283 9.06243 9.2634 8.52139 9.60396C 7.98035 9.94453 7.43931 10.1489 6.83064 10.217L 11.3618 17.6413C 11.4295 17.7094 11.4971 17.8457 11.4971 17.9819C 11.5647 18.1181 11.5647 18.2543 11.5647 18.3906C 11.5647 18.5268 11.4971 18.7311 11.3618 18.9355C 11.2266 19.1398 11.0237 19.2079 10.6855 19.2079C 10.4827 19.2079 10.3474 19.1398 10.2121 19.0717C 10.0769 19.0036 9.94162 18.8674 9.80636 18.663L 4.66647 10.217L 1.89363 10.217L 1.89363 18.2543C 1.89363 18.5268 1.82601 18.7311 1.62312 18.9355C 1.42023 19.1398 1.21734 19.2079 0.946817 19.2079C 0.676296 19.2079 0.473406 19.1398 0.270516 18.9355C 0.0676259 18.7311 0 18.5268 0 18.2543L 0 0.953585L 0.0676342 0.953585ZM 1.89363 1.83906L 1.89363 8.44604L 5.88382 8.44604C 6.2896 8.44604 6.76301 8.37792 7.16879 8.17358C 7.57457 7.96924 7.91272 7.7649 8.25088 7.49245C 8.5214 7.22 8.79192 6.81132 8.92718 6.47075C 9.13007 6.06207 9.19769 5.6534 9.19769 5.1766C 9.19769 4.76792 9.13007 4.29113 8.92718 3.88245C 8.72429 3.47377 8.5214 3.13321 8.25088 2.79264C 7.98036 2.52019 7.57457 2.24774 7.16879 2.11151C 6.76301 1.90717 6.35723 1.83906 5.88382 1.83906L 1.89363 1.83906Z"/>
<path id="path15_stroke" d="M 0.0676342 0.953585L 0.0676342 1.15358L 0.267634 1.15358L 0.267634 0.953585L 0.0676342 0.953585ZM 10.7532 6.94755L 10.9407 7.01738L 10.943 7.01039L 10.7532 6.94755ZM 9.87399 8.44604L 10.0263 8.57567L 10.0281 8.57353L 9.87399 8.44604ZM 6.83064 10.217L 6.8084 10.0182L 6.49634 10.0531L 6.65992 10.3212L 6.83064 10.217ZM 11.3618 17.6413L 11.1911 17.7455L 11.2034 17.7656L 11.2199 17.7822L 11.3618 17.6413ZM 11.4971 17.9819L 11.2971 17.9819L 11.2971 18.0288L 11.318 18.0708L 11.4971 17.9819ZM 9.80636 18.663L 9.63538 18.7671L 9.63959 18.7734L 9.80636 18.663ZM 4.66647 10.217L 4.83732 10.113L 4.77888 10.017L 4.66647 10.017L 4.66647 10.217ZM 1.89363 10.217L 1.89363 10.017L 1.69363 10.017L 1.69363 10.217L 1.89363 10.217ZM 0 0.953585L 0 0.753585L -0.2 0.753585L -0.2 0.953585L 0 0.953585ZM 1.89363 8.44604L 1.69363 8.44604L 1.69363 8.64604L 1.89363 8.64604L 1.89363 8.44604ZM 7.16879 8.17358L 7.07884 7.99495L 7.16879 8.17358ZM 8.25088 7.49245L 8.37636 7.64819L 8.38499 7.64124L 8.3928 7.63337L 8.25088 7.49245ZM 8.92718 6.47075L 8.74804 6.38182L 8.74436 6.38924L 8.7413 6.39693L 8.92718 6.47075ZM 8.25088 2.79264L 8.40748 2.66824L 8.4006 2.65958L 8.3928 2.65172L 8.25088 2.79264ZM 7.16879 2.11151L 7.07884 2.29014L 7.0916 2.29656L 7.10514 2.30111L 7.16879 2.11151ZM 0.267634 0.953585C 0.267634 0.833923 0.282492 0.740414 0.313648 0.658826C 0.344456 0.578151 0.395084 0.498967 0.480074 0.41337L 0.196226 0.131536C 0.0783267 0.250278 -0.00630415 0.375434 -0.0600315 0.516126C -0.113411 0.655907 -0.132366 0.800794 -0.132366 0.953585L 0.267634 0.953585ZM 0.480074 0.41337C 0.565089 0.327748 0.643538 0.276947 0.723181 0.246096C 0.803687 0.214911 0.896021 0.2 1.01445 0.2L 1.01445 -0.2C 0.862361 -0.2 0.71799 -0.180854 0.578697 -0.126898C 0.438543 -0.0726072 0.314102 0.0128179 0.196226 0.131536L 0.480074 0.41337ZM 1.01445 0.2L 5.95144 0.2L 5.95144 -0.2L 1.01445 -0.2L 1.01445 0.2ZM 5.95144 0.2C 6.67047 0.2 7.31849 0.331543 7.89863 0.591226L 8.06205 0.226132C 7.42485 -0.0590905 6.72026 -0.2 5.95144 -0.2L 5.95144 0.2ZM 7.89863 0.591226C 8.4903 0.85607 9.00925 1.18387 9.46155 1.63941L 9.7454 1.35757C 9.25088 0.859522 8.68772 0.506194 8.06205 0.226132L 7.89863 0.591226ZM 9.46155 1.63941C 9.91389 2.09497 10.2395 2.61777 10.5026 3.21395L 10.8685 3.05246C 10.5906 2.42261 10.2399 1.85559 9.7454 1.35757L 9.46155 1.63941ZM 10.5026 3.21395C 10.7611 3.79985 10.8913 4.45326 10.8913 5.10849L 11.2913 5.10849C 11.2913 4.40145 11.151 3.6926 10.8685 3.05246L 10.5026 3.21395ZM 10.8913 5.10849C 10.8913 5.69261 10.7624 6.28327 10.5633 6.8847L 10.943 7.01039C 11.1498 6.38578 11.2913 5.75041 11.2913 5.10849L 10.8913 5.10849ZM 10.5657 6.87776C 10.3719 7.39843 10.0462 7.92418 9.7199 8.31854L 10.0281 8.57353C 10.3781 8.15053 10.7287 7.58648 10.9406 7.01733L 10.5657 6.87776ZM 9.72168 8.31641C 9.33042 8.77615 8.94058 9.10377 8.41485 9.4347L 8.62793 9.77322C 9.18428 9.42302 9.60601 9.06951 10.0263 8.57566L 9.72168 8.31641ZM 8.41485 9.4347C 7.89588 9.76138 7.3833 9.95389 6.8084 10.0182L 6.85288 10.4157C 7.49532 10.3438 8.06483 10.1277 8.62793 9.77322L 8.41485 9.4347ZM 6.65992 10.3212L 11.1911 17.7455L 11.5326 17.5371L 7.00136 10.1128L 6.65992 10.3212ZM 11.2199 17.7822C 11.2327 17.7951 11.2534 17.8236 11.2708 17.8644C 11.2878 17.9043 11.2971 17.9457 11.2971 17.9819L 11.6971 17.9819C 11.6971 17.7896 11.6062 17.6036 11.5038 17.5004L 11.2199 17.7822ZM 11.318 18.0708C 11.3618 18.1592 11.3647 18.2493 11.3647 18.3906L 11.7647 18.3906C 11.7647 18.2594 11.7676 18.077 11.6762 17.893L 11.318 18.0708ZM 11.3647 18.3906C 11.3647 18.4738 11.3177 18.6398 11.1951 18.8251L 11.5286 19.0459C 11.6765 18.8225 11.7647 18.5798 11.7647 18.3906L 11.3647 18.3906ZM 11.1951 18.8251C 11.1498 18.8935 11.0979 18.9346 11.0275 18.9618C 10.9509 18.9915 10.844 19.0079 10.6855 19.0079L 10.6855 19.4079C 10.8652 19.4079 11.0288 19.3903 11.172 19.3348C 11.3214 19.2769 11.4386 19.1818 11.5286 19.0459L 11.1951 18.8251ZM 10.6855 19.0079C 10.534 19.0079 10.4358 18.9604 10.3021 18.8931L 10.1222 19.2503C 10.259 19.3192 10.4313 19.4079 10.6855 19.4079L 10.6855 19.0079ZM 10.3021 18.8931C 10.2116 18.8475 10.0998 18.744 9.97313 18.5526L 9.63959 18.7734C 9.78341 18.9907 9.94221 19.1597 10.1222 19.2503L 10.3021 18.8931ZM 9.97721 18.559L 4.83732 10.113L 4.49562 10.321L 9.63551 18.767L 9.97721 18.559ZM 4.66647 10.017L 1.89363 10.017L 1.89363 10.417L 4.66647 10.417L 4.66647 10.017ZM 1.69363 10.217L 1.69363 18.2543L 2.09363 18.2543L 2.09363 10.217L 1.69363 10.217ZM 1.69363 18.2543C 1.69363 18.374 1.67878 18.4675 1.64762 18.5491C 1.61681 18.6298 1.56618 18.709 1.48119 18.7946L 1.76504 19.0764C 1.88294 18.9576 1.96757 18.8325 2.0213 18.6918C 2.07468 18.552 2.09363 18.4071 2.09363 18.2543L 1.69363 18.2543ZM 1.48119 18.7946C 1.39618 18.8802 1.31773 18.931 1.23809 18.9618C 1.15758 18.993 1.06525 19.0079 0.946817 19.0079L 0.946817 19.4079C 1.09891 19.4079 1.24328 19.3888 1.38257 19.3348C 1.52272 19.2805 1.64717 19.1951 1.76504 19.0764L 1.48119 18.7946ZM 0.946817 19.0079C 0.828386 19.0079 0.736052 18.993 0.655547 18.9618C 0.575904 18.931 0.497454 18.8802 0.41244 18.7946L 0.128592 19.0764C 0.246468 19.1951 0.370909 19.2805 0.511064 19.3348C 0.650356 19.3888 0.794727 19.4079 0.946817 19.4079L 0.946817 19.0079ZM 0.41244 18.7946C 0.32745 18.709 0.276822 18.6298 0.246014 18.5491C 0.214858 18.4675 0.2 18.374 0.2 18.2543L -0.2 18.2543C -0.2 18.4071 -0.181045 18.552 -0.127666 18.6918C -0.0739383 18.8325 0.0106925 18.9576 0.128592 19.0764L 0.41244 18.7946ZM 0.2 18.2543L 0.2 0.953585L -0.2 0.953585L -0.2 18.2543L 0.2 18.2543ZM 0 1.15358L 0.0676342 1.15358L 0.0676342 0.753585L 0 0.753585L 0 1.15358ZM 1.69363 1.83906L 1.69363 8.44604L 2.09363 8.44604L 2.09363 1.83906L 1.69363 1.83906ZM 1.89363 8.64604L 5.88382 8.64604L 5.88382 8.24604L 1.89363 8.24604L 1.89363 8.64604ZM 5.88382 8.64604C 6.30834 8.64604 6.8157 8.57532 7.25874 8.35221L 7.07884 7.99495C 6.71032 8.18053 6.27087 8.24604 5.88382 8.24604L 5.88382 8.64604ZM 7.25874 8.35221C 7.67333 8.14344 8.02432 7.93183 8.37636 7.64819L 8.12539 7.33671C 7.80113 7.59798 7.47581 7.79505 7.07884 7.99495L 7.25874 8.35221ZM 8.3928 7.63337C 8.68142 7.34268 8.96735 6.91144 9.11305 6.54458L 8.7413 6.39693C 8.61648 6.7112 8.36137 7.09732 8.10895 7.35153L 8.3928 7.63337ZM 9.10631 6.55969C 9.32681 6.11556 9.39769 5.67415 9.39769 5.1766L 8.99769 5.1766C 8.99769 5.63264 8.93333 6.00859 8.74804 6.38182L 9.10631 6.55969ZM 9.39769 5.1766C 9.39769 4.74951 9.32756 4.23916 9.10631 3.79352L 8.74804 3.97139C 8.93258 4.3431 8.99769 4.78634 8.99769 5.1766L 9.39769 5.1766ZM 9.10631 3.79352C 8.89908 3.37609 8.68905 3.02272 8.40748 2.66824L 8.09427 2.91704C 8.35374 3.2437 8.54949 3.57145 8.74804 3.97139L 9.10631 3.79352ZM 8.3928 2.65172C 8.10302 2.35988 7.67116 2.06919 7.23244 1.92191L 7.10514 2.30111C 7.47798 2.42628 7.85769 2.6805 8.10895 2.93356L 8.3928 2.65172ZM 7.25874 1.93288C 6.81723 1.71055 6.37834 1.63906 5.88382 1.63906L 5.88382 2.03906C 6.33613 2.03906 6.70879 2.10379 7.07884 2.29014L 7.25874 1.93288ZM 5.88382 1.63906L 1.89363 1.63906L 1.89363 2.03906L 5.88382 2.03906L 5.88382 1.63906Z"/>
<path id="path16_fill" d="M 4.12781e-06 0.953585C 4.12781e-06 0.681132 0.0676301 0.476792 0.27052 0.272453C 0.47341 0.0681132 0.676301 2.59831e-07 0.946821 2.59831e-07L 10.0769 2.59831e-07C 10.3474 2.59831e-07 10.5503 0.0681132 10.7532 0.272453C 10.9561 0.476792 11.0237 0.681132 11.0237 0.953585C 11.0237 1.22604 10.9561 1.43038 10.7532 1.63472C 10.5503 1.83906 10.3474 1.90717 10.0769 1.90717L 1.89364 1.90717L 1.89364 8.65037L 7.37168 8.65037C 7.6422 8.65037 7.84509 8.71849 8.04798 8.92283C 8.25087 9.12717 8.31849 9.33151 8.31849 9.60396C 8.31849 9.87641 8.25087 10.0808 8.04798 10.2851C 7.84509 10.4894 7.6422 10.5575 7.37168 10.5575L 1.89364 10.5575L 1.89364 17.5051L 10.0769 17.5051C 10.3474 17.5051 10.5503 17.5732 10.7532 17.7775C 10.9561 17.9819 11.0237 18.1862 11.0237 18.4587C 11.0237 18.7311 10.9561 18.9355 10.7532 19.1398C 10.5503 19.3441 10.3474 19.4123 10.0769 19.4123L 0.946821 19.4123C 0.676301 19.4123 0.47341 19.3441 0.27052 19.1398C 0.0676301 18.9355 4.12781e-06 18.7311 4.12781e-06 18.4587L 4.12781e-06 0.953585Z"/>
<path id="path17_stroke" d="M 10.7532 0.272453L 10.6113 0.41337L 10.7532 0.272453ZM 1.89364 1.90717L 1.89364 1.70717L 1.69364 1.70717L 1.69364 1.90717L 1.89364 1.90717ZM 1.89364 8.65037L 1.69364 8.65037L 1.69364 8.85038L 1.89364 8.85038L 1.89364 8.65037ZM 8.04798 8.92283L 8.1899 8.78191L 8.04798 8.92283ZM 8.04798 10.2851L 8.1899 10.426L 8.04798 10.2851ZM 1.89364 10.5575L 1.89364 10.3575L 1.69364 10.3575L 1.69364 10.5575L 1.89364 10.5575ZM 1.89364 17.5051L 1.69364 17.5051L 1.69364 17.7051L 1.89364 17.7051L 1.89364 17.5051ZM 0.200004 0.953585C 0.200004 0.833923 0.214862 0.740413 0.246018 0.658826C 0.276826 0.578151 0.327454 0.498967 0.412444 0.41337L 0.128596 0.131536C 0.0106966 0.250278 -0.0739342 0.375434 -0.127662 0.516126C -0.181041 0.655907 -0.199996 0.800794 -0.199996 0.953585L 0.200004 0.953585ZM 0.412444 0.41337C 0.497458 0.327748 0.575908 0.276947 0.655551 0.246096C 0.736057 0.214911 0.828391 0.2 0.946821 0.2L 0.946821 -0.2C 0.79473 -0.2 0.650359 -0.180854 0.511067 -0.126898C 0.370913 -0.0726072 0.246472 0.0128179 0.128596 0.131536L 0.412444 0.41337ZM 0.946821 0.2L 10.0769 0.2L 10.0769 -0.2L 0.946821 -0.2L 0.946821 0.2ZM 10.0769 0.2C 10.1953 0.2 10.2876 0.214911 10.3681 0.246096C 10.4478 0.276947 10.5262 0.327748 10.6113 0.41337L 10.8951 0.131536C 10.7772 0.0128178 10.6528 -0.0726072 10.5126 -0.126898C 10.3733 -0.180854 10.229 -0.2 10.0769 -0.2L 10.0769 0.2ZM 10.6113 0.41337C 10.6962 0.498967 10.7469 0.578151 10.7777 0.658826C 10.8088 0.740413 10.8237 0.833923 10.8237 0.953585L 11.2237 0.953585C 11.2237 0.800794 11.2047 0.655907 11.1514 0.516126C 11.0976 0.375434 11.013 0.250278 10.8951 0.131536L 10.6113 0.41337ZM 10.8237 0.953585C 10.8237 1.07325 10.8088 1.16676 10.7777 1.24834C 10.7469 1.32902 10.6962 1.4082 10.6113 1.4938L 10.8951 1.77563C 11.013 1.65689 11.0976 1.53174 11.1514 1.39104C 11.2047 1.25126 11.2237 1.10638 11.2237 0.953585L 10.8237 0.953585ZM 10.6113 1.4938C 10.5262 1.57942 10.4478 1.63022 10.3681 1.66107C 10.2876 1.69226 10.1953 1.70717 10.0769 1.70717L 10.0769 2.10717C 10.229 2.10717 10.3733 2.08802 10.5126 2.03407C 10.6528 1.97978 10.7772 1.89435 10.8951 1.77563L 10.6113 1.4938ZM 10.0769 1.70717L 1.89364 1.70717L 1.89364 2.10717L 10.0769 2.10717L 10.0769 1.70717ZM 1.69364 1.90717L 1.69364 8.65037L 2.09364 8.65037L 2.09364 1.90717L 1.69364 1.90717ZM 1.89364 8.85038L 7.37168 8.85038L 7.37168 8.45037L 1.89364 8.45037L 1.89364 8.85038ZM 7.37168 8.85038C 7.49011 8.85038 7.58244 8.86529 7.66295 8.89647C 7.74259 8.92732 7.82104 8.97812 7.90605 9.06375L 8.1899 8.78191C 8.07202 8.66319 7.94758 8.57777 7.80743 8.52348C 7.66814 8.46952 7.52377 8.45037 7.37168 8.45037L 7.37168 8.85038ZM 7.90605 9.06375C 7.99104 9.14934 8.04167 9.22853 8.07248 9.3092C 8.10363 9.39079 8.11849 9.4843 8.11849 9.60396L 8.51849 9.60396C 8.51849 9.45117 8.49954 9.30628 8.44616 9.1665C 8.39243 9.02581 8.3078 8.90065 8.1899 8.78191L 7.90605 9.06375ZM 8.11849 9.60396C 8.11849 9.72362 8.10363 9.81713 8.07248 9.89872C 8.04167 9.97939 7.99104 10.0586 7.90605 10.1442L 8.1899 10.426C 8.3078 10.3073 8.39243 10.1821 8.44616 10.0414C 8.49954 9.90164 8.51849 9.75675 8.51849 9.60396L 8.11849 9.60396ZM 7.90605 10.1442C 7.82104 10.2298 7.74259 10.2806 7.66295 10.3114C 7.58244 10.3426 7.49011 10.3575 7.37168 10.3575L 7.37168 10.7575C 7.52377 10.7575 7.66814 10.7384 7.80743 10.6844C 7.94758 10.6302 8.07202 10.5447 8.1899 10.426L 7.90605 10.1442ZM 7.37168 10.3575L 1.89364 10.3575L 1.89364 10.7575L 7.37168 10.7575L 7.37168 10.3575ZM 1.69364 10.5575L 1.69364 17.5051L 2.09364 17.5051L 2.09364 10.5575L 1.69364 10.5575ZM 1.89364 17.7051L 10.0769 17.7051L 10.0769 17.3051L 1.89364 17.3051L 1.89364 17.7051ZM 10.0769 17.7051C 10.1953 17.7051 10.2876 17.72 10.3681 17.7512C 10.4478 17.782 10.5262 17.8328 10.6113 17.9185L 10.8951 17.6366C 10.7772 17.5179 10.6528 17.4325 10.5126 17.3782C 10.3733 17.3242 10.229 17.3051 10.0769 17.3051L 10.0769 17.7051ZM 10.6113 17.9185C 10.6962 18.0041 10.7469 18.0832 10.7777 18.1639C 10.8088 18.2455 10.8237 18.339 10.8237 18.4587L 11.2237 18.4587C 11.2237 18.3059 11.2047 18.161 11.1514 18.0212C 11.0976 17.8805 11.013 17.7554 10.8951 17.6366L 10.6113 17.9185ZM 10.8237 18.4587C 10.8237 18.5783 10.8088 18.6718 10.7777 18.7534C 10.7469 18.8341 10.6962 18.9133 10.6113 18.9989L 10.8951 19.2807C 11.013 19.162 11.0976 19.0368 11.1514 18.8961C 11.2047 18.7564 11.2237 18.6115 11.2237 18.4587L 10.8237 18.4587ZM 10.6113 18.9989C 10.5262 19.0845 10.4478 19.1353 10.3681 19.1662C 10.2876 19.1973 10.1953 19.2123 10.0769 19.2123L 10.0769 19.6123C 10.229 19.6123 10.3733 19.5931 10.5126 19.5392C 10.6528 19.4849 10.7772 19.3994 10.8951 19.2807L 10.6113 18.9989ZM 10.0769 19.2123L 0.946821 19.2123L 0.946821 19.6123L 10.0769 19.6123L 10.0769 19.2123ZM 0.946821 19.2123C 0.82839 19.2123 0.736056 19.1973 0.655551 19.1662C 0.575908 19.1353 0.497458 19.0845 0.412444 18.9989L 0.128596 19.2807C 0.246472 19.3994 0.370913 19.4849 0.511068 19.5392C 0.65036 19.5931 0.794731 19.6123 0.946821 19.6123L 0.946821 19.2123ZM 0.412444 18.9989C 0.327454 18.9133 0.276826 18.8341 0.246018 18.7534C 0.214862 18.6718 0.200004 18.5783 0.200004 18.4587L -0.199996 18.4587C -0.199996 18.6115 -0.181041 18.7564 -0.127662 18.8961C -0.0739342 19.0368 0.0106966 19.162 0.128596 19.2807L 0.412444 18.9989ZM 0.200004 18.4587L 0.200004 0.953585L -0.199996 0.953585L -0.199996 18.4587L 0.200004 18.4587Z"/>
<path id="path18_fill" d="M 1.01445 2.0434C 1.57472 2.0434 2.02891 1.58597 2.02891 1.0217C 2.02891 0.457429 1.57472 0 1.01445 0C 0.454189 0 4.12781e-06 0.457429 4.12781e-06 1.0217C 4.12781e-06 1.58597 0.454189 2.0434 1.01445 2.0434Z"/>
<path id="path19_stroke" d="M 1.82891 1.0217C 1.82891 1.47685 1.46292 1.8434 1.01445 1.8434L 1.01445 2.2434C 1.68652 2.2434 2.22891 1.69508 2.22891 1.0217L 1.82891 1.0217ZM 1.01445 1.8434C 0.565986 1.8434 0.200004 1.47685 0.200004 1.0217L -0.199996 1.0217C -0.199996 1.69508 0.342392 2.2434 1.01445 2.2434L 1.01445 1.8434ZM 0.200004 1.0217C 0.200004 0.566542 0.565986 0.2 1.01445 0.2L 1.01445 -0.2C 0.342393 -0.2 -0.199996 0.348317 -0.199996 1.0217L 0.200004 1.0217ZM 1.01445 0.2C 1.46292 0.2 1.82891 0.566542 1.82891 1.0217L 2.22891 1.0217C 2.22891 0.348317 1.68652 -0.2 1.01445 -0.2L 1.01445 0.2Z"/>
<path id="path20_fill" d="M 1.0216 2.02909C 1.58582 2.02909 2.04321 1.57486 2.04321 1.01454C 2.04321 0.454227 1.58582 0 1.0216 0C 0.457384 0 -4.15692e-06 0.454227 -4.15692e-06 1.01454C -4.15692e-06 1.57486 0.457384 2.02909 1.0216 2.02909Z"/>
<path id="path21_stroke" d="M 1.84321 1.01454C 1.84321 1.4631 1.47667 1.82909 1.0216 1.82909L 1.0216 2.22909C 1.69496 2.22909 2.24321 1.68662 2.24321 1.01454L 1.84321 1.01454ZM 1.0216 1.82909C 0.566531 1.82909 0.199996 1.4631 0.199996 1.01454L -0.200004 1.01454C -0.200004 1.68662 0.348237 2.22909 1.0216 2.22909L 1.0216 1.82909ZM 0.199996 1.01454C 0.199996 0.565989 0.566531 0.2 1.0216 0.2L 1.0216 -0.2C 0.348237 -0.2 -0.200004 0.342464 -0.200004 1.01454L 0.199996 1.01454ZM 1.0216 0.2C 1.47667 0.2 1.84321 0.565989 1.84321 1.01454L 2.24321 1.01454C 2.24321 0.342464 1.69496 -0.2 1.0216 -0.2L 1.0216 0.2Z"/>
<path id="path22_fill" d="M 1.02161 2.02909C 1.58583 2.02909 2.04321 1.57486 2.04321 1.01454C 2.04321 0.454227 1.58583 0 1.02161 0C 0.457392 0 4.15692e-06 0.454227 4.15692e-06 1.01454C 4.15692e-06 1.57486 0.457392 2.02909 1.02161 2.02909Z"/>
<path id="path23_stroke" d="M 1.84321 1.01454C 1.84321 1.4631 1.47668 1.82909 1.02161 1.82909L 1.02161 2.22909C 1.69497 2.22909 2.24321 1.68662 2.24321 1.01454L 1.84321 1.01454ZM 1.02161 1.82909C 0.566539 1.82909 0.200004 1.4631 0.200004 1.01454L -0.199996 1.01454C -0.199996 1.68662 0.348245 2.22909 1.02161 2.22909L 1.02161 1.82909ZM 0.200004 1.01454C 0.200004 0.565989 0.566539 0.2 1.02161 0.2L 1.02161 -0.2C 0.348245 -0.2 -0.199996 0.342464 -0.199996 1.01454L 0.200004 1.01454ZM 1.02161 0.2C 1.47668 0.2 1.84321 0.565989 1.84321 1.01454L 2.24321 1.01454C 2.24321 0.342464 1.69497 -0.2 1.02161 -0.2L 1.02161 0.2Z"/>
<path id="path24_fill" d="M 24.5859 15.6748C 24.5859 15.6748 22.2382 -4.41849 0 0.894318C 0 0.894318 5.15196 21.805 24.5859 15.6748Z"/>
<path id="path25_fill" d="M 14.9328 25.6786C 14.9328 25.6786 22.4978 7.08374 0.716044 6.49575e-08C 0.716044 6.49575e-08 -4.8272 20.7744 14.9328 25.6786Z"/>
<path id="path26_fill" d="M 6.55045 29.6972C 6.55045 29.6972 22.0063 17.505 6.55045 0C 6.55045 0 -8.18807 15.1211 6.55045 29.6972Z"/>
<path id="path27_fill" d="M 1.05569 25.6786C 1.05569 25.6786 20.294 23.2946 15.2725 6.49575e-08C 15.2725 6.49575e-08 -4.74842 5.31281 1.05569 25.6786Z"/>
<path id="path28_fill" d="M 9.95097e-07 15.6614C 9.95097e-07 15.6614 17.8036 23.4944 24.5207 0.744714C 24.5207 0.744714 4.56503 -5.04488 9.95097e-07 15.6614Z"/>
</defs>
</svg>
