<svg id="Capa_1" data-name="Capa 1" xmlns="http://www.w3.org/2000/svg" viewBox="0 0 812 171"><defs><style>.cls-1{fill:#666;}.cls-2{fill:#b9babd;}.cls-2,.cls-3,.cls-4,.cls-5,.cls-6{opacity:0.68;}.cls-3{fill:#a8d9cf;}.cls-4{fill:#41735f;}.cls-5{fill:#73422d;}.cls-6{fill:#ff7bac;}</style></defs><title>Mesa de trabajo 1</title><path class="cls-1" d="M278.88,65.07a45.14,45.14,0,0,0-8.63-5.75,22.62,22.62,0,0,0-10.58-2.57A26.21,26.21,0,0,0,241,64.46a26.78,26.78,0,0,0-5.6,8.42,26.78,26.78,0,0,0,0,20.55,25.86,25.86,0,0,0,14,14,27,27,0,0,0,21-.16,25.47,25.47,0,0,0,8.58-6.11,3.09,3.09,0,0,1,1.29-.92,4.13,4.13,0,0,1,1.59-.31,2.31,2.31,0,0,1,2,.92,3.43,3.43,0,0,1,.67,2.06,3.48,3.48,0,0,1-.93,2.57,31.68,31.68,0,0,1-10.68,7.65,32.52,32.52,0,0,1-13.25,2.72,31.7,31.7,0,0,1-12.74-2.57,32.54,32.54,0,0,1-17.36-17.36,32.86,32.86,0,0,1,0-25.48,33.63,33.63,0,0,1,7-10.42,32.6,32.6,0,0,1,10.38-7,31.87,31.87,0,0,1,12.74-2.57,31.35,31.35,0,0,1,12.89,2.67,33.88,33.88,0,0,1,10.53,7.3,5.37,5.37,0,0,1,.93,1.33,3.72,3.72,0,0,1,.41,1.65,2.44,2.44,0,0,1-.93,2,3.38,3.38,0,0,1-2.15.72A3.15,3.15,0,0,1,278.88,65.07Z"/><path class="cls-1" d="M381.3,82.85c-2.05-.62-4.23-1.39-6.52-2.32a31.91,31.91,0,0,1-6.27-3.33,18.68,18.68,0,0,1-4.67-4.58,10.17,10.17,0,0,1-1.85-6,13.57,13.57,0,0,1,1.75-6.93,17.13,17.13,0,0,1,4.52-5.14,20.17,20.17,0,0,1,6.21-3.18,22.74,22.74,0,0,1,6.83-1.08,31.74,31.74,0,0,1,4.68.36,22.18,22.18,0,0,1,4.77,1.28,20.12,20.12,0,0,1,4.58,2.57,19.18,19.18,0,0,1,4.05,4.21,3.83,3.83,0,0,1,.62,2.16,3.51,3.51,0,0,1-.87,2.42,3,3,0,0,1-2.31,1,3.22,3.22,0,0,1-2.88-1.64,10.63,10.63,0,0,0-2.88-3.24,14.34,14.34,0,0,0-3.34-1.8,13.82,13.82,0,0,0-3.39-.77q-1.69-.15-3-.15a19.52,19.52,0,0,0-4.31.51,14.19,14.19,0,0,0-4.16,1.65,9.46,9.46,0,0,0-3.14,3,8.63,8.63,0,0,0-1.23,4.77,4.91,4.91,0,0,0,1.8,3.7,17.63,17.63,0,0,0,4.37,2.88A46.53,46.53,0,0,0,380,75.35q2.77.91,4.72,1.64a63.3,63.3,0,0,1,7.09,3.08,22.76,22.76,0,0,1,5.5,3.91,16.05,16.05,0,0,1,3.59,5.24,17.73,17.73,0,0,1,1.29,7.08,17.49,17.49,0,0,1-1.75,7.71,19.77,19.77,0,0,1-4.67,6.21,22.09,22.09,0,0,1-6.73,4.11,21.37,21.37,0,0,1-7.91,1.49,24.84,24.84,0,0,1-6-.77,28.81,28.81,0,0,1-6-2.16,24.65,24.65,0,0,1-5.14-3.33,14.28,14.28,0,0,1-3.54-4.32,3.08,3.08,0,0,1-.51-1.64,3.42,3.42,0,0,1,3.38-3.29A3.08,3.08,0,0,1,366.2,102a9.5,9.5,0,0,0,2.72,3.24,20,20,0,0,0,4,2.36,21.1,21.1,0,0,0,4.37,1.44,19.27,19.27,0,0,0,3.95.46,15.21,15.21,0,0,0,5.45-1,15.56,15.56,0,0,0,4.67-2.78,13.78,13.78,0,0,0,3.24-4.16,11.27,11.27,0,0,0,1.23-5.19,10.2,10.2,0,0,0-1.08-4.82,11.26,11.26,0,0,0-3-3.6,22.7,22.7,0,0,0-4.62-2.77A53.58,53.58,0,0,0,381.3,82.85Z"/><path class="cls-1" d="M536.63,52.54A4.26,4.26,0,0,1,537.76,51a2.61,2.61,0,0,1,1.85-.77,2.75,2.75,0,0,1,1.85.72,4.6,4.6,0,0,1,1.23,1.64l25.38,58.87a3,3,0,0,1,.2,1.23,3.11,3.11,0,0,1-.82,2.15,2.86,2.86,0,0,1-2.26.93,3,3,0,0,1-3-2l-22.4-51.35-22.9,51.35a3.28,3.28,0,0,1-3,2,3.09,3.09,0,0,1-3.19-3.08,2.67,2.67,0,0,1,.31-1.23Zm3,9.55"/><path class="cls-1" d="M778.36,52.54A4.26,4.26,0,0,1,779.49,51a2.61,2.61,0,0,1,1.85-.77,2.75,2.75,0,0,1,1.85.72,4.6,4.6,0,0,1,1.23,1.64l25.38,58.87a3,3,0,0,1,.2,1.23,3.11,3.11,0,0,1-.82,2.15,2.86,2.86,0,0,1-2.26.93,3,3,0,0,1-3-2l-22.4-51.35-22.9,51.35a3.28,3.28,0,0,1-3,2,3.08,3.08,0,0,1-3.19-3.08,2.67,2.67,0,0,1,.31-1.23Zm3,9.55"/><path class="cls-1" d="M437.42,52.54A4.38,4.38,0,0,1,438.55,51a2.62,2.62,0,0,1,1.85-.77,2.73,2.73,0,0,1,1.85.72,4.75,4.75,0,0,1,1.24,1.64l25.37,58.87a2.8,2.8,0,0,1,.2,1.23,3.11,3.11,0,0,1-.82,2.15,2.86,2.86,0,0,1-2.26.93,3,3,0,0,1-3-2L440.6,62.42l-22.9,51.35a3.25,3.25,0,0,1-3,2,3.08,3.08,0,0,1-3.18-3.08,2.78,2.78,0,0,1,.3-1.23Zm3,9.55"/><path class="cls-1" d="M317.26,52.54A4.15,4.15,0,0,1,318.39,51a2.61,2.61,0,0,1,1.85-.77,2.75,2.75,0,0,1,1.85.72,4.72,4.72,0,0,1,1.23,1.64l25.37,58.87a2.78,2.78,0,0,1,.21,1.23,3.15,3.15,0,0,1-.82,2.15,2.86,2.86,0,0,1-2.26.93,3,3,0,0,1-3-2L320.43,62.42l-22.9,51.35a3.2,3.2,0,0,1-1.23,1.44,3.26,3.26,0,0,1-1.74.51,3.08,3.08,0,0,1-3.19-3.08,2.67,2.67,0,0,1,.31-1.23Zm3,9.55"/><path class="cls-1" d="M579.16,53.46a3.34,3.34,0,0,1,.93-2.2,3,3,0,0,1,2.36-1.08,2.73,2.73,0,0,1,2.26,1,3.65,3.65,0,0,1,.82,2.36V93a15.87,15.87,0,0,0,1.29,6.37,16.42,16.42,0,0,0,3.49,5.18,16.9,16.9,0,0,0,5.24,3.55,15.74,15.74,0,0,0,6.42,1.33,15.41,15.41,0,0,0,6.37-1.33,17.9,17.9,0,0,0,5.24-3.55,16.87,16.87,0,0,0,3.59-5.18A15.42,15.42,0,0,0,618.51,93V53.46a3.37,3.37,0,0,1,.92-2.2,3,3,0,0,1,2.37-1.08,2.64,2.64,0,0,1,2.26,1.13,3.88,3.88,0,0,1,.82,2.26V93A21.64,21.64,0,0,1,623,101.9a23.69,23.69,0,0,1-4.93,7.24,22.93,22.93,0,0,1-7.24,4.88,22.85,22.85,0,0,1-17.78,0A22.84,22.84,0,0,1,581,101.9a22.1,22.1,0,0,1-1.8-8.88Z"/><path class="cls-1" d="M643.27,53.46a3.26,3.26,0,0,1,.92-2.31,3,3,0,0,1,2.26-1H663.3a17.12,17.12,0,0,1,6.88,1.38,18.17,18.17,0,0,1,5.6,3.81,17.92,17.92,0,0,1,3.8,5.59,17.31,17.31,0,0,1,.26,12.95,18.56,18.56,0,0,1-3.08,5.19,17.92,17.92,0,0,1-4.68,3.9,17.09,17.09,0,0,1-5.8,2.11l15.61,25.37a8,8,0,0,1,.57,1.13,3.47,3.47,0,0,1,.25,1.34,3.15,3.15,0,0,1-.77,1.84,2.57,2.57,0,0,1-2.2,1,3,3,0,0,1-1.7-.51,4.32,4.32,0,0,1-1.28-1.34L659.19,85.31h-9.55v27.33a3.19,3.19,0,1,1-6.37,0Zm6.37,3.09V78.94H663.3a11,11,0,0,0,4.31-.87,11.37,11.37,0,0,0,6-6,10.83,10.83,0,0,0,.88-4.37,11,11,0,0,0-.88-4.31,11.22,11.22,0,0,0-2.41-3.6,11.38,11.38,0,0,0-3.6-2.41,11,11,0,0,0-4.31-.87Z"/><path class="cls-1" d="M699.05,53.36A3.06,3.06,0,0,1,700,51.1a3.1,3.1,0,0,1,2.26-.92h31.23a3.19,3.19,0,1,1,0,6.37h-28V79.46h18.69a3.18,3.18,0,1,1,0,6.36H705.42v23.63h28a3.19,3.19,0,1,1,0,6.37H702.23a3.1,3.1,0,0,1-2.26-.92,3.06,3.06,0,0,1-.92-2.26Z"/><circle class="cls-1" cx="321.13" cy="99.45" r="3.49"/><circle class="cls-1" cx="441.3" cy="99.45" r="3.49"/><circle class="cls-1" cx="539.11" cy="99.45" r="3.49"/><circle class="cls-1" cx="780.84" cy="99.45" r="3.49"/><path class="cls-2" d="M95.49,131.36S87.1,63.09,8,81C8,81,26.34,152.13,95.49,131.36Z"/><path class="cls-3" d="M95.56,131.36S122.45,68.05,45,44C45,44,25.29,114.74,95.56,131.36Z"/><path class="cls-4" d="M95.45,131.22s54.93-41.38-.09-100.95C95.36,30.27,42.9,81.7,95.45,131.22Z"/><path class="cls-5" d="M95.57,131.26s68.29-8.23,50.59-87.37C146.16,43.89,75,62.06,95.57,131.26Z"/><path class="cls-6" d="M95.73,131.28S159.11,158,183,80.51C183,80.51,112.18,61,95.73,131.28Z"/></svg>