<svg width="160" height="35" viewBox="0 0 160 35" version="1.1" xmlns="http://www.w3.org/2000/svg" xmlns:xlink="http://www.w3.org/1999/xlink">
<title>Group</title>
<desc>Created using Figma</desc>
<g id="Canvas" transform="translate(2668 -88)">
<g id="Group">
<g id="Group">
<g id="Vector">
<use xlink:href="#path0_fill" transform="translate(-2668 88)" fill="#999999"/>
</g>
<g id="Vector">
<use xlink:href="#path1_fill" transform="translate(-2533.89 96.9342)" fill="#999999"/>
</g>
<g id="Vector">
<use xlink:href="#path2_fill" transform="translate(-2553.16 96.6946)" fill="#999999"/>
</g>
<g id="Vector">
<use xlink:href="#path3_fill" transform="translate(-2516.76 97.0246)" fill="#999999"/>
</g>
<g id="Vector">
<use xlink:href="#path4_fill" transform="translate(-2590.7 96.9768)" fill="#999999"/>
</g>
<g id="Vector">
<use xlink:href="#path5_fill" transform="translate(-2578.72 96.6649)" fill="#999999"/>
</g>
<g id="Vector">
<use xlink:href="#path6_fill" transform="translate(-2625.59 96.6866)" fill="#999999"/>
</g>
<g id="Vector">
<use xlink:href="#path7_fill" transform="translate(-2566.46 96.9768)" fill="#999999"/>
</g>
<g id="Vector">
<use xlink:href="#path8_fill" transform="translate(-2602.96 97.0246)" fill="#999999"/>
</g>
<g id="Vector">
<use xlink:href="#path9_fill" transform="translate(-2611.24 96.9768)" fill="#999999"/>
</g>
</g>
</g>
</g>
<defs>
<path id="path0_fill" d="M 34.1775 35C 22.7692 35 11.4083 35 0 35C 0 23.3015 0 11.6985 0 0C 11.361 0 22.7692 0 34.1775 0C 34.1775 11.6507 34.1775 23.2538 34.1775 35ZM 20.2604 29.8431C 21.7752 29.8909 23.1479 29.6999 24.4734 29.2224C 26.6036 28.4584 27.929 26.9304 28.4024 24.6862C 28.7337 23.015 28.5444 21.3915 28.1184 19.7203C 27.5503 17.5239 26.9349 15.3274 26.4616 13.131C 26.1775 11.794 26.4142 10.5048 27.5976 9.59754C 27.787 9.4543 27.8343 9.12005 27.8817 8.88131C 27.929 7.63984 27.8817 6.39836 27.8817 5.15689C 27.8817 4.96589 27.8343 4.7749 27.8343 4.5839C 24.7101 4.7749 22.1065 7.0191 21.6331 10.0273C 21.4438 11.2688 21.4438 12.558 21.6805 13.7995C 22.1065 15.9482 22.7692 18.0491 23.29 20.1978C 23.4793 21.0573 23.6213 22.0123 23.6213 22.9195C 23.6213 24.2565 22.8639 25.116 21.5858 25.4025C 21.1598 25.498 20.7337 25.5457 20.2604 25.5935C 20.2604 26.9304 20.2604 28.3629 20.2604 29.8431Z"/>
<path id="path1_fill" d="M 2.88757 6.05899C 2.88757 9.68791 2.88757 13.2213 2.88757 16.7548C 1.94083 16.7548 0.994078 16.7548 -5.77848e-06 16.7548C -5.77848e-06 11.2159 -5.77848e-06 5.62925 -5.77848e-06 0.0426186C 0.473367 0.0426186 0.94674 0.0426186 1.42011 0.0426186C 1.89349 0.0426186 2.46153 -0.100628 2.84023 0.138117C 3.17159 0.329113 3.36095 0.9021 3.59763 1.28409C 5.34911 4.24453 7.1006 7.25271 8.89942 10.2132C 8.99409 10.3564 9.04143 10.4519 9.1361 10.5951C 9.1361 7.06172 9.1361 3.57604 9.1361 0.0426186C 10.0828 0.0426186 11.0769 0.0426186 12.071 0.0426186C 12.071 5.53375 12.071 11.0249 12.071 16.516C 11.2663 16.6593 10.4142 16.8503 9.60948 16.9935C 9.5148 16.9935 9.37278 16.8503 9.27811 16.707C 8.09468 14.7016 6.91124 12.6483 5.72781 10.6429C 4.87574 9.21042 4.07101 7.8257 3.21894 6.39323C 3.07693 6.34548 2.98225 6.24999 2.88757 6.05899Z"/>
<path id="path2_fill" d="M 2.88924e-06 8.68601C 0.0946775 7.0148 0.331363 5.43908 1.04142 3.91112C 2.17752 1.47592 4.11834 0.282193 6.72189 0.0434486C 7.81065 -0.0520494 8.85208 -0.00430023 9.94084 0.329943C 11.929 0.90293 13.3491 2.1444 14.1539 4.10211C 15.3373 7.1103 15.3846 10.214 14.1539 13.2222C 13.0651 15.8961 10.9822 17.2331 8.14201 17.3763C 6.57988 17.4718 5.06509 17.2331 3.69231 16.4213C 1.89349 15.3709 0.899412 13.6519 0.473376 11.6464C 0.189352 10.6437 0.142015 9.64099 2.88924e-06 8.68601ZM 11.5976 8.63826C 11.5976 7.49229 11.503 6.34631 11.0296 5.24809C 10.4142 3.72012 9.27811 2.95614 7.66864 2.90839C 6.05917 2.86064 4.78106 3.57687 4.16568 5.10484C 3.88166 5.82107 3.64498 6.63281 3.5503 7.44454C 3.36095 8.97251 3.40829 10.4527 3.97633 11.9329C 4.59172 13.5564 5.77515 14.4159 7.47929 14.4159C 9.1361 14.4636 10.3669 13.6042 11.0296 12.0284C 11.4556 10.9302 11.5976 9.78424 11.5976 8.63826Z"/>
<path id="path3_fill" d="M 0 16.7121C 0 11.1255 0 5.58663 0 -1.82148e-07C 2.84024 -1.82148e-07 5.63314 -1.82148e-07 8.52072 -1.82148e-07C 8.28403 0.90723 8.04734 1.81446 7.76332 2.72169C 7.71598 2.81719 7.52664 2.91269 7.38462 2.91269C 6.15385 2.91269 4.92307 2.91269 3.6923 2.91269C 3.55029 2.91269 3.40828 2.91269 3.26627 2.91269C 3.26627 4.20191 3.26627 5.39564 3.26627 6.68486C 4.73373 6.68486 6.20118 6.68486 7.71598 6.68486C 7.71598 7.68759 7.71598 8.59482 7.71598 9.59754C 6.24852 9.59754 4.78107 9.59754 3.26627 9.59754C 3.26627 10.9823 3.26627 12.367 3.26627 13.7517C 5.06509 13.7517 6.91125 13.7517 8.7574 13.7517C 8.7574 14.7544 8.7574 15.7094 8.7574 16.7121C 5.82249 16.7121 2.93491 16.7121 0 16.7121Z"/>
<path id="path4_fill" d="M 7.66864 6.73261C 7.66864 7.73533 7.66864 8.64257 7.66864 9.59754C 6.20119 9.59754 4.6864 9.59754 3.21894 9.59754C 3.21894 11.03 3.21894 12.4147 3.21894 13.7995C 5.06509 13.7995 6.86391 13.7995 8.71006 13.7995C 8.71006 14.8022 8.71006 15.7094 8.71006 16.7121C 5.82249 16.7121 2.93491 16.7121 1.44462e-06 16.7121C 1.44462e-06 11.1255 1.44462e-06 5.58663 1.44462e-06 -3.64296e-07C 2.84024 -3.64296e-07 5.63314 -3.64296e-07 8.52072 -3.64296e-07C 8.23669 1.00273 8.00001 1.90996 7.71598 2.91269C 6.20119 2.91269 4.73373 2.91269 3.21894 2.91269C 3.21894 4.20191 3.21894 5.44338 3.21894 6.73261C 4.6864 6.73261 6.15385 6.73261 7.66864 6.73261Z"/>
<path id="path5_fill" d="M 8.61748 3.74983C 7.71807 3.46333 6.866 3.17684 6.01392 2.98584C 5.3512 2.8426 4.68848 2.9381 4.07309 3.27234C 2.937 3.79758 2.79498 5.27779 3.83641 6.04178C 4.26244 6.32827 4.78315 6.56702 5.25652 6.80576C 6.1086 7.2355 7.00801 7.66524 7.86008 8.14273C 8.99617 8.81122 9.89558 9.71845 10.1323 11.1032C 10.6056 13.9681 9.04351 17.1195 5.3512 17.3583C 3.64705 17.5015 1.94291 17.1673 0.38078 16.4511C 0.238768 16.4033 0.1441 16.3556 0.0020877 16.2601C 0.333449 15.2573 0.664809 14.3024 1.04351 13.3474C 1.61155 13.5861 2.13226 13.8249 2.65297 14.0159C 3.59972 14.3501 4.54646 14.4933 5.49321 14.3024C 6.34528 14.1114 6.86599 13.6816 7.008 12.9654C 7.19735 12.1059 6.96067 11.4852 6.15594 11.0077C 5.30387 10.5302 4.40445 10.1004 3.50505 9.62295C 3.12635 9.43196 2.79498 9.28871 2.41629 9.09771C 0.712143 8.19048 -0.0452496 6.71026 0.0020877 4.80031C 0.049425 2.36511 1.70623 0.550647 4.21511 0.120906C 6.1086 -0.213337 7.90742 0.168655 9.6589 0.980388C 9.32753 1.93537 8.94884 2.89035 8.61748 3.74983Z"/>
<path id="path6_fill" d="M 9.70415 1.00642C 9.32545 1.9614 8.99409 2.86864 8.61539 3.82362C 8.28403 3.68037 8.00001 3.53712 7.71598 3.44162C 6.67456 3.01188 5.5858 2.77314 4.44971 3.10738C 3.45562 3.39387 2.93491 4.3011 3.26627 5.20834C 3.40829 5.68582 3.73965 5.97232 4.11835 6.16331C 4.97042 6.59306 5.82249 7.0228 6.67456 7.45254C 7.05326 7.64353 7.47929 7.83453 7.85799 8.07327C 9.94083 9.31475 10.7456 11.1292 9.98817 13.7077C 9.37279 15.8564 7.85799 17.0501 5.68048 17.2888C 3.69231 17.5276 1.79882 17.1456 -7.2231e-07 16.2383C 0.33136 15.2356 0.710061 14.2806 1.04142 13.3257C 1.75148 13.6122 2.46154 13.8986 3.1716 14.1374C 4.07101 14.4239 4.97042 14.4716 5.82249 14.1851C 6.48521 13.9941 6.91125 13.6122 7.05326 12.8959C 7.19527 12.1319 7.00592 11.5112 6.39054 11.0815C 5.9645 10.795 5.49113 10.5562 5.01775 10.3175C 4.30769 9.93548 3.59763 9.60124 2.88757 9.267C 0.757396 8.16877 -0.142011 6.54531 0.142013 4.15786C 0.378699 2.2479 1.84615 0.672182 3.97633 0.194693C 5.68048 -0.235048 7.76332 0.0514451 9.70415 1.00642Z"/>
<path id="path7_fill" d="M 11.6923 0.0477488C 11.6923 1.05048 11.6923 1.95771 11.6923 2.96044C 10.2722 2.96044 8.89942 2.96044 7.4793 2.96044C 7.4793 3.15143 7.4793 3.34243 7.4793 3.48568C 7.4793 7.73533 7.4793 12.0327 7.4793 16.2824C 7.4793 16.6644 7.38462 16.8076 7.00592 16.7599C 6.20119 16.7121 5.44379 16.7599 4.63906 16.7599C 4.49705 16.7599 4.40237 16.7599 4.21302 16.7599C 4.21302 12.176 4.21302 7.59209 4.21302 2.96044C 2.7929 2.96044 1.42012 2.96044 1.34541e-14 2.96044C 1.34541e-14 1.95771 1.34541e-14 1.00273 1.34541e-14 -3.64296e-07C 3.88166 0.0477486 7.76332 0.0477488 11.6923 0.0477488Z"/>
<path id="path8_fill" d="M 3.26628 -1.82148e-07C 3.26628 4.63165 3.26628 9.1678 3.26628 13.7995C 5.15977 13.7995 7.00592 13.7995 8.89941 13.7995C 8.89941 14.8022 8.89941 15.7572 8.89941 16.7121C 5.91716 16.7121 2.98225 16.7121 -2.88924e-06 16.7121C -2.88924e-06 11.1255 -2.88924e-06 5.58663 -2.88924e-06 -1.82148e-07C 1.13609 -1.82148e-07 2.17752 -1.82148e-07 3.26628 -1.82148e-07Z"/>
<path id="path9_fill" d="M 3.21894 16.7599C 2.13018 16.7599 1.08876 16.7599 7.2231e-07 16.7599C 7.2231e-07 11.1733 7.2231e-07 5.63438 7.2231e-07 -3.64296e-07C 0.994084 -3.64296e-07 1.98817 -3.64296e-07 2.98225 -3.64296e-07C 3.07692 -3.64296e-07 3.1716 0.143247 3.1716 0.190996C 3.21894 0.286494 3.1716 0.381991 3.1716 0.477489C 3.1716 5.72988 3.1716 10.9823 3.1716 16.2347C 3.21894 16.4256 3.21894 16.5689 3.21894 16.7599Z"/>
</defs>
</svg>
